<svg width="295" height="312" viewBox="0 0 295 312" fill="none" xmlns="http://www.w3.org/2000/svg">
<path opacity="0.6" fill-rule="evenodd" clip-rule="evenodd" d="M295 4.47015C286.064 2.53461 276.932 1.04877 267.659 0.079285C261.356 -0.572326 255.378 2.84345 252.795 8.45062L239.294 37.9084C237.077 42.7062 232.36 45.9836 226.951 46.4575L221.542 46.9116C216.154 47.3657 210.908 44.957 207.878 40.5937L189.211 13.8998C185.673 8.80609 179.126 6.49603 173.066 8.21356C162.899 11.1159 153.017 14.6501 143.44 18.757C137.645 21.2248 134.208 27.0888 134.879 33.2094L138.356 65.2932C138.946 70.5251 136.526 75.6389 132.114 78.6794L127.661 81.7397C123.208 84.7604 117.413 85.2343 112.533 82.9243L82.6824 68.8666C76.9888 66.1816 70.116 67.3464 65.7647 71.7888C58.5054 79.1533 51.7342 87.0112 45.5325 95.2839C41.7706 100.24 41.8113 106.992 45.5325 111.987L65.1546 138.187C68.3064 142.393 68.8553 147.98 66.5169 152.66C65.7239 154.259 64.9512 155.878 64.1988 157.517C61.9825 162.255 57.2652 165.454 51.9375 165.829L18.6104 168.158C12.2867 168.612 6.95903 172.936 5.47466 178.919C3.01421 188.751 1.2249 198.84 0.0862278 209.107C-0.604934 215.228 2.91264 221.032 8.70781 223.54L39.0459 236.65C43.9871 238.802 47.3626 243.383 47.8504 248.634L48.3182 253.886C48.7859 259.118 46.3052 264.212 41.8113 267.154L14.3201 285.279C9.07378 288.714 6.69487 295.072 8.46391 300.956C9.59062 304.677 10.8096 308.358 12.118 312H143.957C126.965 290.531 116.864 263.651 116.864 234.478C116.864 164.15 175.567 107.15 247.997 107.15C264.562 107.15 280.409 110.132 295 115.572V4.47015Z" fill="#F96500"/>
</svg>
