<svg width="751" height="573" viewBox="0 0 751 573" fill="none" xmlns="http://www.w3.org/2000/svg">
<path d="M12.7016 135.635C35.9793 150.3 125.497 362.189 156.21 505.177C156.731 507.601 158.933 509.287 161.417 509.201L240.667 506.472C243.449 506.376 245.57 504.095 245.406 501.334C237.496 367.76 256.941 170.99 272.551 122.42C273.14 120.59 274.78 119.449 276.722 119.316L324.961 116.022C326.862 115.892 328.682 116.815 329.672 118.455C364.581 176.275 409.752 276.695 452.279 507.483" stroke="#627884" stroke-width="13"/>
<path d="M330.702 113.187C262.779 80.9791 170.75 66.5788 157.896 67.7247" stroke="#627884" stroke-width="4"/>
<path d="M274.702 117.187C206.441 85.2725 112.352 67.4173 100.909 72.4065" stroke="#627884" stroke-width="4"/>
<path d="M94.2016 162.687C175.5 317.5 241.849 510.66 242.689 507.153" stroke="#627884" stroke-width="4"/>
<path d="M101.307 70.8312C90.888 117.127 94.199 167.651 97.0033 167.992" stroke="#627884" stroke-width="4"/>
<path d="M95 165C61.5 162.5 33.9243 164.579 34.336 163.89" stroke="#627884" stroke-width="4"/>
<path d="M161.557 67.7698C135.482 65.2019 103.732 70.2687 101.019 73.2429" stroke="#627884" stroke-width="4"/>
<path d="M327 117C352.23 130.357 435.707 361.529 448.131 502.881C448.358 505.464 450.503 507.45 453.106 507.533L532.353 510.05C535.144 510.139 537.416 507.99 537.422 505.214C537.733 368.588 569.365 169.328 587.995 120.916C588.692 119.106 590.415 118.058 592.38 118.053L640.852 117.926C642.765 117.921 644.526 118.97 645.404 120.681C676.791 181.916 715.83 287.236 744.172 525.248" stroke="#627884" stroke-width="13"/>
<path d="M646 115C581.414 83.2322 491.307 66.9829 478.441 67.6066" stroke="#627884" stroke-width="4"/>
<path d="M593 116C526.861 84.0655 433.305 64.3729 421.271 68.6427" stroke="#627884" stroke-width="4"/>
<path d="M408.819 158.313C480.076 317.996 533.968 514.995 535.03 511.549" stroke="#627884" stroke-width="4"/>
<path d="M422 67C408.572 112.606 408.512 163.273 411.277 163.785" stroke="#627884" stroke-width="4"/>
<path d="M409.468 160.671C376.196 156.04 348.544 156.355 348.999 155.694" stroke="#627884" stroke-width="4"/>
<path d="M482.092 67.8851C456.234 63.6591 424.225 66.6902 421.328 69.4852" stroke="#627884" stroke-width="4"/>
</svg>
