<svg width="295" height="90" viewBox="0 0 295 90" fill="none" xmlns="http://www.w3.org/2000/svg">
<path d="M293.191 46.9459L288.805 44.9939C288.09 44.6735 287.602 43.9914 287.532 43.2124L287.464 42.4245C287.397 41.6455 287.755 40.887 288.405 40.4489L292.38 37.7502C293.138 37.2387 293.482 36.292 293.226 35.416C292.794 33.9461 292.268 32.5173 291.656 31.1327C291.289 30.2978 290.416 29.798 289.504 29.895L284.727 30.4007C283.948 30.48 283.187 30.1331 282.734 29.4952L282.278 28.8514C281.829 28.2075 281.758 27.3697 282.102 26.6641L284.192 22.3485C284.592 21.5253 284.419 20.5376 283.757 19.9026C282.661 18.853 281.49 17.8741 280.259 16.9774C279.521 16.4336 278.515 16.4395 277.772 16.9774L273.87 19.8144C273.244 20.27 272.412 20.3494 271.716 20.0113C271.477 19.8967 271.236 19.785 270.992 19.6762C270.287 19.3558 269.811 18.6796 269.755 17.9035L269.408 13.0851C269.34 12.1708 268.696 11.4006 267.806 11.186C266.342 10.8362 264.839 10.5716 263.311 10.4069C262.399 10.3099 261.535 10.8185 261.162 11.6534L259.21 16.0396C258.889 16.754 258.207 17.242 257.425 17.3126L256.643 17.3802C255.864 17.4478 255.106 17.0892 254.668 16.4395L251.969 12.4648C251.457 11.7063 250.511 11.3624 249.635 11.6181C248.165 12.0503 246.736 12.5765 245.351 13.188C244.513 13.5555 244.017 14.4286 244.114 15.34L244.616 20.1172C244.702 20.8962 244.352 21.6576 243.714 22.1104L243.07 22.566C242.426 23.0158 241.588 23.0864 240.883 22.7424L236.567 20.6493C235.744 20.2495 234.75 20.4229 234.121 21.0844C233.072 22.1809 232.093 23.351 231.196 24.5827C230.652 25.3206 230.658 26.3261 231.196 27.0698L234.033 30.971C234.489 31.5972 234.568 32.4291 234.23 33.1259C234.115 33.364 234.004 33.6051 233.895 33.8491C233.574 34.5546 232.892 35.0309 232.122 35.0867L227.304 35.4336C226.389 35.5012 225.619 36.1451 225.405 37.0358C225.049 38.4999 224.79 40.0021 224.626 41.5308C224.526 42.4421 225.034 43.3064 225.872 43.6798L230.258 45.6318C230.973 45.9523 231.461 46.6343 231.531 47.4163L231.599 48.1983C231.666 48.9774 231.308 49.7358 230.658 50.1739L226.683 52.8726C225.925 53.3841 225.581 54.3308 225.837 55.2068C226.269 56.6767 226.795 58.1055 227.407 59.4901C227.774 60.328 228.647 60.8248 229.559 60.7278L234.336 60.2251C235.115 60.1398 235.876 60.4897 236.329 61.1276L236.785 61.7714C237.234 62.4153 237.305 63.2531 236.961 63.9587L234.868 68.2743C234.468 69.0975 234.642 70.0911 235.303 70.7202C236.4 71.7698 237.57 72.7487 238.798 73.6454C239.536 74.1892 240.542 74.1834 241.283 73.6454L245.187 70.8084C245.813 70.3528 246.645 70.2734 247.342 70.6115C247.58 70.7261 247.821 70.8378 248.065 70.9466C248.77 71.2671 249.247 71.9491 249.302 72.7193L249.649 77.5377C249.717 78.452 250.361 79.2222 251.252 79.4368C252.716 79.7925 254.218 80.0512 255.746 80.2159C256.628 80.3129 257.472 79.8366 257.857 79.0429C257.869 79.0194 257.881 78.9958 257.893 78.9723L259.845 74.5861C260.165 73.8717 260.847 73.3837 261.626 73.3132L262.414 73.2456C263.193 73.1779 263.952 73.5366 264.39 74.1863L267.088 78.1609C267.403 78.6284 267.888 78.94 268.414 79.0429C268.693 79.1076 268.99 79.1076 269.276 79.0429C269.328 79.0341 269.376 79.0223 269.423 79.0076C270.892 78.5755 272.321 78.0492 273.706 77.4377C274.541 77.0703 275.041 76.1971 274.944 75.2858L274.461 70.7261L274.438 70.5056C274.358 69.7266 274.705 68.9652 275.343 68.5124L275.987 68.0568C276.631 67.607 277.469 67.5364 278.174 67.8804L282.49 69.9735C283.313 70.3733 284.301 70.1999 284.936 69.5384C285.985 68.4419 286.964 67.2718 287.861 66.0401C288.405 65.3022 288.399 64.2967 287.861 63.5559L285.024 59.6518C284.568 59.0257 284.489 58.1937 284.827 57.4969C284.942 57.2588 285.054 57.0178 285.162 56.7738C285.477 56.0682 286.159 55.5919 286.935 55.5361L291.753 55.1892C292.665 55.1216 293.438 54.4778 293.653 53.587C294.002 52.123 294.267 50.6207 294.432 49.092C294.532 48.1836 294.026 47.3164 293.191 46.9459ZM260.468 64.2674C249.996 64.2674 241.509 55.7801 241.509 45.3085C241.509 34.8368 249.996 26.3496 260.468 26.3496C270.939 26.3496 279.427 34.8368 279.427 45.3085C279.427 55.7801 270.939 64.2674 260.468 64.2674Z" fill="#F96500"/>
<path d="M26.0438 20.7698C35.6717 20.7934 45.2967 20.8198 54.9246 20.8433C56.6091 20.8022 61.0277 20.8963 63.2531 23.695C63.2531 23.695 64.3291 25.0473 64.5319 27.064C65.2345 34.0284 48.4452 61.4393 47.1723 63.506C47.1723 63.506 43.9767 68.0598 37.6826 69.2063C37.6826 69.2063 22.9276 70.2235 0 69.2974L9.38978 52.1583H33.4022C33.4022 52.1583 40.1285 51.9731 40.937 48.0484C41.7454 44.1238 43.4417 39.0173 34.4664 39.0173C25.4912 39.0173 17.9623 39.0173 17.9623 39.0173C17.9623 32.9348 26.0438 26.8523 26.0438 20.7698Z" fill="white"/>
<path d="M48.4011 66.6516L71.7844 22.1398C72.0902 21.5606 72.6899 21.1961 73.3426 21.1961H85.8515C86.707 21.1961 87.439 21.8105 87.586 22.6543L95.3794 67.1661C95.5676 68.245 94.7386 69.2327 93.6449 69.2327H78.3197C77.3466 69.2327 76.5587 68.4449 76.5587 67.4718V43.5564L67.6834 68.0715C67.4306 68.7683 66.7691 69.2327 66.0283 69.2327H49.9622C48.6363 69.2327 47.7838 67.8275 48.4011 66.6516Z" fill="white"/>
<path d="M106.127 22.7248C103.338 37.565 100.548 52.4052 97.7548 67.2425C97.5343 68.4155 98.4339 69.5003 99.6275 69.5003H132.095C133.012 69.5003 133.8 68.8476 133.967 67.9451C134.782 63.5854 135.596 59.2256 136.41 54.8659C136.628 53.6929 135.728 52.611 134.538 52.611H117.995C116.811 52.611 115.911 51.538 116.12 50.3709L120.921 23.3569C121.129 22.1868 120.224 21.1108 119.036 21.1167L107.994 21.1696C107.08 21.1755 106.298 21.8252 106.127 22.7248Z" fill="white"/>
<path d="M144.992 22.8482L137.245 66.8191C137.007 68.1655 138.042 69.3973 139.409 69.3973H166.088C167.137 69.3973 168.04 68.6565 168.243 67.6275L170.912 54.2043C171.183 52.8461 170.142 51.5791 168.757 51.5791H158.486C157.107 51.5791 156.069 50.3238 156.328 48.9685L157.812 41.1898C158.009 40.155 158.918 39.4053 159.97 39.4053H171.6C172.658 39.4053 173.567 38.6498 173.761 37.612L176.371 23.6361C176.624 22.2838 175.587 21.0344 174.211 21.0344H147.158C146.088 21.0314 145.177 21.7987 144.992 22.8482Z" fill="white"/>
<path d="M170.853 69.4003L179.767 22.4691C179.926 21.6371 180.652 21.0344 181.501 21.0344H206.475C207.578 21.0344 208.409 22.0369 208.21 23.1188L206.319 33.314C206.163 34.149 205.434 34.7575 204.585 34.7575H193.361C192.558 34.7575 191.855 35.3014 191.653 36.0775L191.132 38.0824C190.841 39.1996 191.685 40.2902 192.84 40.2902H197.368C198.482 40.2902 199.317 41.3103 199.096 42.404L198.038 47.6427C197.87 48.4659 197.147 49.0568 196.309 49.0568H189.68C188.839 49.0568 188.116 49.6506 187.951 50.4738L187.663 51.9055C187.443 52.9961 188.278 54.0162 189.392 54.0162H200.372C201.48 54.0162 202.315 55.0275 202.104 56.1153L199.802 67.9716C199.64 68.8006 198.914 69.4003 198.07 69.4003C193.114 69.4003 188.157 69.4003 183.204 69.4003C179.229 69.4003 174.819 69.4003 170.853 69.4003Z" fill="white"/>
<path d="M218.131 20.9404C217.047 20.9492 216.106 21.69 215.841 22.7395L210.823 42.742C210.823 42.742 209.365 46.9666 215.121 47.8544C220.877 48.7422 227.107 49.4742 227.107 49.4742C227.107 49.4742 230.232 49.6094 229.094 51.7643C227.956 53.9192 229.12 53.8516 224.376 53.6458C219.631 53.44 208.792 54.1309 208.792 54.1309C208.792 54.1309 206.616 54.1515 204.843 60.3368C203.068 66.5193 201.554 69.3533 204.444 69.5943C207.331 69.8354 230.629 69.9177 233.533 61.698C236.438 53.4783 240.404 44.9557 234.271 44.6882C234.271 44.6882 227.812 43.9444 224.167 41.7866C220.522 39.6288 222.77 38.5969 224.799 38.5675C226.827 38.5381 233.595 38.8909 233.595 38.8909L236.255 39.0055C236.255 39.0055 237.267 39.1084 237.628 38.7468C237.931 38.447 238.399 37.5915 238.546 37.3122C238.578 37.2534 238.604 37.1975 238.631 37.1358C238.966 36.3832 247.653 24.8003 242.45 25.7411C-196.6 105.081 89.9672 49.5977 239.419 20.7698L218.131 20.9404Z" fill="white"/>
<path opacity="0.07" d="M113.844 0L32.5732 89.7703H0.361572L81.624 0H113.844Z" fill="#8C8C8C"/>
<path opacity="0.07" d="M144.842 0L63.5706 89.7703H56.9119L138.174 0H144.842Z" fill="#8C8C8C"/>
<path opacity="0.07" d="M170.465 0L89.2 89.7703H73.6454L154.911 0H170.465Z" fill="#8C8C8C"/>
<path opacity="0.07" d="M190.209 0L108.947 89.7703H99.3158L180.587 0H190.209Z" fill="#8C8C8C"/>
</svg>
