<svg width="295" height="312" viewBox="0 0 295 312" fill="none" xmlns="http://www.w3.org/2000/svg">
<path opacity="0.8" fill-rule="evenodd" clip-rule="evenodd" d="M295 4.47027C286.064 2.53473 276.932 1.04888 267.659 0.0792712C261.356 -0.572275 255.378 2.84345 252.795 8.45069L239.294 37.9085C237.077 42.7062 232.36 45.9837 226.951 46.4576L221.542 46.9116C216.154 47.3657 210.908 44.957 207.878 40.5936L189.211 13.8999C185.673 8.80604 179.126 6.496 173.066 8.21372C162.899 11.1161 153.017 14.6503 143.44 18.757C137.645 21.225 134.208 27.0888 134.879 33.2094L138.356 65.2931C138.946 70.5252 136.526 75.6389 132.114 78.6794L127.661 81.7398C123.208 84.7606 117.413 85.2344 112.532 82.9244L82.6823 68.8668C76.9889 66.1816 70.116 67.3465 65.7646 71.7889C58.5054 79.1533 51.7342 87.0113 45.5324 95.284C41.7706 100.24 41.8113 106.992 45.5324 111.987L65.1546 138.187C68.3063 142.393 68.8553 147.98 66.5169 152.66C65.7239 154.259 64.9512 155.878 64.1988 157.517C61.9824 162.255 57.265 165.454 51.9376 165.829L18.6104 168.158C12.2865 168.613 6.95903 172.937 5.47466 178.919C3.01427 188.751 1.22496 198.84 0.0862682 209.107C-0.605083 215.228 2.91265 221.032 8.7078 223.54L39.0459 236.65C43.987 238.802 47.3624 243.382 47.8505 248.634L48.3181 253.886C48.7858 259.118 46.3051 264.212 41.8114 267.154L14.32 285.279C9.07383 288.714 6.69476 295.072 8.4638 300.955C9.59051 304.677 10.8097 308.358 12.118 312H143.957C126.965 290.531 116.864 263.651 116.864 234.478C116.864 164.15 175.567 107.15 247.996 107.15C264.562 107.15 280.409 110.132 295 115.572V4.47027Z" fill="#FF6700"/>
</svg>
