<svg width="883" height="617" viewBox="0 0 883 617" fill="none" xmlns="http://www.w3.org/2000/svg">
<g filter="url(#filter0_d)">
<rect x="28" y="42.3569" width="819.527" height="544.91" rx="11" transform="rotate(-1.84302 28 42.3569)" fill="#0B1A1A"/>
</g>
<line x1="379.899" y1="343.3" x2="619.524" y2="334.764" stroke="#A4ABAF" stroke-width="2"/>
<line y1="-1" x2="239.778" y2="-1" transform="matrix(0.999366 -0.0355995 -0.0355995 -0.999366 377.106 264.905)" stroke="#A4ABAF" stroke-width="2"/>
<line x1="615.323" y1="257.42" x2="375.697" y2="265.956" stroke="#A4ABAF" stroke-width="2"/>
<line y1="-1" x2="239.778" y2="-1" transform="matrix(-0.999366 0.0355995 0.0355995 0.999366 618.117 335.815)" stroke="#A4ABAF" stroke-width="2"/>
<line x1="618.561" y1="335.799" x2="618.047" y2="321.363" stroke="#A4ABAF" stroke-width="2"/>
<line x1="616.185" y1="256.611" x2="616.719" y2="271.601" stroke="#A4ABAF" stroke-width="2"/>
<line x1="376.661" y1="264.921" x2="377.175" y2="279.356" stroke="#A4ABAF" stroke-width="2"/>
<line y1="-1" x2="14.4444" y2="-1" transform="matrix(-0.0355995 -0.999366 -0.999366 0.0355995 378.491 344.351)" stroke="#A4ABAF" stroke-width="2"/>
<line x1="617.619" y1="321.823" x2="741.765" y2="317.49" stroke="#A4ABAF" stroke-width="2"/>
<line y1="-1" x2="124.221" y2="-1" transform="matrix(0.99934 -0.0363167 -0.0363167 -0.99934 615.751 269.412)" stroke="#A4ABAF" stroke-width="2"/>
<line x1="377.605" y1="278.896" x2="171.18" y2="286.249" stroke="#A4ABAF" stroke-width="2"/>
<line x1="379.455" y1="330.884" x2="173.031" y2="338.216" stroke="#A4ABAF" stroke-width="2"/>
<line x1="99.9093" y1="314.249" x2="146.102" y2="312.603" stroke="#A4ABAF" stroke-width="2"/>
<line x1="177.86" y1="311.472" x2="212.505" y2="310.238" stroke="#A4ABAF" stroke-width="2"/>
<line x1="244.262" y1="309.107" x2="278.907" y2="307.873" stroke="#A4ABAF" stroke-width="2"/>
<line x1="309.221" y1="306.793" x2="343.866" y2="305.559" stroke="#A4ABAF" stroke-width="2"/>
<line x1="375.623" y1="304.427" x2="410.268" y2="303.193" stroke="#A4ABAF" stroke-width="2"/>
<line x1="440.582" y1="302.113" x2="475.227" y2="300.879" stroke="#A4ABAF" stroke-width="2"/>
<line x1="506.984" y1="299.748" x2="541.629" y2="298.514" stroke="#A4ABAF" stroke-width="2"/>
<line x1="573.387" y1="297.383" x2="608.031" y2="296.148" stroke="#A4ABAF" stroke-width="2"/>
<line x1="638.346" y1="295.069" x2="672.99" y2="293.835" stroke="#A4ABAF" stroke-width="2"/>
<line x1="704.748" y1="292.703" x2="739.393" y2="291.469" stroke="#A4ABAF" stroke-width="2"/>
<line x1="769.707" y1="290.389" x2="814.456" y2="288.795" stroke="#A4ABAF" stroke-width="2"/>
<line x1="372.754" y1="155.213" x2="376.713" y2="266.364" stroke="#A4ABAF" stroke-width="2"/>
<line x1="372.754" y1="155.213" x2="376.713" y2="266.364" stroke="#A4ABAF" stroke-width="2"/>
<line x1="373.234" y1="156.196" x2="332.815" y2="157.636" stroke="#A4ABAF" stroke-width="2"/>
<line x1="373.234" y1="156.196" x2="332.815" y2="157.636" stroke="#A4ABAF" stroke-width="2"/>
<line x1="333.779" y1="156.601" x2="338.201" y2="280.745" stroke="#A4ABAF" stroke-width="2"/>
<line x1="333.779" y1="156.601" x2="338.201" y2="280.745" stroke="#A4ABAF" stroke-width="2"/>
<line x1="340.052" y1="332.712" x2="344.474" y2="456.855" stroke="#A4ABAF" stroke-width="2"/>
<line x1="379.49" y1="344.315" x2="383.45" y2="455.467" stroke="#A4ABAF" stroke-width="2"/>
<line x1="343.439" y1="455.891" x2="382.415" y2="454.503" stroke="#A4ABAF" stroke-width="2"/>
<line x1="364.289" y1="169.26" x2="373.259" y2="177.613" stroke="#A4ABAF" stroke-width="2"/>
<line x1="364.289" y1="169.26" x2="373.259" y2="177.613" stroke="#A4ABAF" stroke-width="2"/>
<line x1="370.048" y1="330.935" x2="379.018" y2="339.288" stroke="#A4ABAF" stroke-width="2"/>
<line x1="352.741" y1="169.672" x2="373.67" y2="189.161" stroke="#A4ABAF" stroke-width="2"/>
<line x1="352.741" y1="169.672" x2="373.67" y2="189.161" stroke="#A4ABAF" stroke-width="2"/>
<line x1="358.5" y1="331.347" x2="379.429" y2="350.836" stroke="#A4ABAF" stroke-width="2"/>
<line x1="341.193" y1="170.083" x2="374.082" y2="200.709" stroke="#A4ABAF" stroke-width="2"/>
<line x1="341.193" y1="170.083" x2="374.082" y2="200.709" stroke="#A4ABAF" stroke-width="2"/>
<line x1="346.952" y1="331.758" x2="379.841" y2="362.385" stroke="#A4ABAF" stroke-width="2"/>
<line x1="334.129" y1="174.671" x2="374.493" y2="212.258" stroke="#A4ABAF" stroke-width="2"/>
<line x1="334.129" y1="174.671" x2="374.493" y2="212.258" stroke="#A4ABAF" stroke-width="2"/>
<line x1="339.888" y1="336.346" x2="380.252" y2="373.933" stroke="#A4ABAF" stroke-width="2"/>
<line x1="334.541" y1="186.219" x2="374.904" y2="223.806" stroke="#A4ABAF" stroke-width="2"/>
<line x1="334.541" y1="186.219" x2="374.904" y2="223.806" stroke="#A4ABAF" stroke-width="2"/>
<line x1="340.3" y1="347.894" x2="380.664" y2="385.481" stroke="#A4ABAF" stroke-width="2"/>
<line x1="334.952" y1="197.767" x2="375.316" y2="235.354" stroke="#A4ABAF" stroke-width="2"/>
<line x1="334.952" y1="197.767" x2="375.316" y2="235.354" stroke="#A4ABAF" stroke-width="2"/>
<line x1="340.711" y1="359.442" x2="381.075" y2="397.029" stroke="#A4ABAF" stroke-width="2"/>
<line x1="335.363" y1="209.315" x2="375.727" y2="246.902" stroke="#A4ABAF" stroke-width="2"/>
<line x1="335.363" y1="209.315" x2="375.727" y2="246.902" stroke="#A4ABAF" stroke-width="2"/>
<line x1="341.123" y1="370.991" x2="381.486" y2="408.578" stroke="#A4ABAF" stroke-width="2"/>
<line x1="335.775" y1="220.864" x2="376.138" y2="258.451" stroke="#A4ABAF" stroke-width="2"/>
<line x1="335.775" y1="220.864" x2="376.138" y2="258.451" stroke="#A4ABAF" stroke-width="2"/>
<line x1="341.534" y1="382.539" x2="381.898" y2="420.126" stroke="#A4ABAF" stroke-width="2"/>
<line x1="336.186" y1="232.412" x2="376.55" y2="269.999" stroke="#A4ABAF" stroke-width="2"/>
<line x1="336.186" y1="232.412" x2="376.55" y2="269.999" stroke="#A4ABAF" stroke-width="2"/>
<line x1="341.945" y1="394.087" x2="382.309" y2="431.674" stroke="#A4ABAF" stroke-width="2"/>
<line x1="336.598" y1="243.96" x2="373.971" y2="278.763" stroke="#A4ABAF" stroke-width="2"/>
<line x1="336.598" y1="243.96" x2="373.971" y2="278.763" stroke="#A4ABAF" stroke-width="2"/>
<line x1="342.342" y1="405.622" x2="381.16" y2="440.373" stroke="#A4ABAF" stroke-width="2"/>
<line x1="336.988" y1="255.489" x2="363.845" y2="279.104" stroke="#A4ABAF" stroke-width="2"/>
<line x1="336.988" y1="255.489" x2="363.845" y2="279.104" stroke="#A4ABAF" stroke-width="2"/>
<line x1="342.747" y1="417.164" x2="369.605" y2="440.779" stroke="#A4ABAF" stroke-width="2"/>
<line x1="337.381" y1="267.022" x2="352.279" y2="279.499" stroke="#A4ABAF" stroke-width="2"/>
<line x1="343.128" y1="427.288" x2="358.078" y2="441.209" stroke="#A4ABAF" stroke-width="2"/>
<rect x="742.524" y="310.703" width="25.4444" height="25.4444" rx="1" transform="rotate(-2.04013 742.524 310.703)" stroke="#A4ABAF" stroke-width="2"/>
<rect x="740.261" y="247.188" width="25.4444" height="25.4444" rx="1" transform="rotate(-2.04013 740.261 247.188)" stroke="#A4ABAF" stroke-width="2"/>
<circle cx="753.428" cy="259.449" r="8.38889" transform="rotate(-2.04013 753.428 259.449)" stroke="#A4ABAF" stroke-width="2"/>
<rect x="144.084" y="268.425" width="25.4444" height="25.4444" rx="1" transform="rotate(-2.04013 144.084 268.425)" stroke="#A4ABAF" stroke-width="2"/>
<circle cx="157.251" cy="280.686" r="8.38889" transform="rotate(-2.04013 157.251 280.686)" stroke="#A4ABAF" stroke-width="2"/>
<rect x="146.398" y="333.384" width="25.4444" height="25.4444" rx="1" transform="rotate(-2.04013 146.398 333.384)" stroke="#A4ABAF" stroke-width="2"/>
<circle cx="159.565" cy="345.645" r="8.38889" transform="rotate(-2.04013 159.565 345.645)" stroke="#A4ABAF" stroke-width="2"/>
<circle cx="755.742" cy="324.408" r="8.38889" transform="rotate(-2.04013 755.742 324.408)" stroke="#A4ABAF" stroke-width="2"/>
<line x1="767.338" y1="264.457" x2="771.668" y2="264.303" stroke="#A4ABAF" stroke-width="2"/>
<line y1="-1" x2="4.33333" y2="-1" transform="matrix(-0.999366 0.0355995 0.0355995 0.999366 143.769 287.671)" stroke="#A4ABAF" stroke-width="2"/>
<line x1="771.26" y1="265.318" x2="771.517" y2="272.536" stroke="#A4ABAF" stroke-width="2"/>
<line y1="-1" x2="7.22222" y2="-1" transform="matrix(0.0355995 0.999366 0.999366 -0.0355995 140.882 287.773)" stroke="#A4ABAF" stroke-width="2"/>
<line x1="770.482" y1="271.572" x2="780.586" y2="271.212" stroke="#A4ABAF" stroke-width="2"/>
<line y1="-1" x2="10.1111" y2="-1" transform="matrix(-0.999366 0.0355995 0.0355995 0.999366 141.139 294.991)" stroke="#A4ABAF" stroke-width="2"/>
<line x1="780.178" y1="272.227" x2="781.566" y2="311.202" stroke="#A4ABAF" stroke-width="2"/>
<line x1="132.033" y1="295.315" x2="133.37" y2="332.847" stroke="#A4ABAF" stroke-width="2"/>
<line x1="780.551" y1="310.794" x2="771.89" y2="311.103" stroke="#A4ABAF" stroke-width="2"/>
<line y1="-1" x2="8.66667" y2="-1" transform="matrix(0.999366 -0.0355995 -0.0355995 -0.999366 133.763 331.388)" stroke="#A4ABAF" stroke-width="2"/>
<line x1="772.854" y1="310.068" x2="773.111" y2="317.285" stroke="#A4ABAF" stroke-width="2"/>
<line y1="-1" x2="7.22222" y2="-1" transform="matrix(0.0355995 0.999366 0.999366 -0.0355995 142.476 332.523)" stroke="#A4ABAF" stroke-width="2"/>
<line x1="773.539" y1="316.825" x2="769.209" y2="316.979" stroke="#A4ABAF" stroke-width="2"/>
<line x1="142.697" y1="338.741" x2="145.584" y2="338.638" stroke="#A4ABAF" stroke-width="2"/>
<line x1="333.258" y1="170.073" x2="372.233" y2="168.684" stroke="#A4ABAF" stroke-width="2"/>
<line x1="333.258" y1="170.073" x2="372.233" y2="168.684" stroke="#A4ABAF" stroke-width="2"/>
<line x1="381.92" y1="440.623" x2="344.388" y2="441.96" stroke="#A4ABAF" stroke-width="2"/>
<rect x="613.907" y="189.538" width="26.8889" height="80.3333" transform="rotate(-2.04013 613.907 189.538)" stroke="#A4ABAF" stroke-width="2"/>
<rect x="618.637" y="322.343" width="26.8889" height="80.3333" transform="rotate(-2.04013 618.637 322.343)" stroke="#A4ABAF" stroke-width="2"/>
<line x1="614.691" y1="199.072" x2="640.674" y2="198.146" stroke="#A4ABAF" stroke-width="2"/>
<line x1="621.581" y1="392.505" x2="647.565" y2="391.579" stroke="#A4ABAF" stroke-width="2"/>
<line x1="634.237" y1="198.736" x2="641.763" y2="207.14" stroke="#A4ABAF" stroke-width="2"/>
<line x1="638.608" y1="321.436" x2="646.134" y2="329.84" stroke="#A4ABAF" stroke-width="2"/>
<line x1="627.045" y1="199.023" x2="642.149" y2="217.274" stroke="#A4ABAF" stroke-width="2"/>
<line x1="631.416" y1="321.722" x2="646.52" y2="339.974" stroke="#A4ABAF" stroke-width="2"/>
<line x1="618.387" y1="199.335" x2="642.563" y2="228.826" stroke="#A4ABAF" stroke-width="2"/>
<line x1="622.758" y1="322.035" x2="646.934" y2="351.526" stroke="#A4ABAF" stroke-width="2"/>
<line x1="614.314" y1="206.707" x2="643.027" y2="241.819" stroke="#A4ABAF" stroke-width="2"/>
<line x1="618.685" y1="329.407" x2="647.398" y2="364.519" stroke="#A4ABAF" stroke-width="2"/>
<line x1="614.777" y1="219.699" x2="643.49" y2="254.81" stroke="#A4ABAF" stroke-width="2"/>
<line x1="619.148" y1="342.399" x2="647.86" y2="377.51" stroke="#A4ABAF" stroke-width="2"/>
<line x1="615.24" y1="232.691" x2="643.952" y2="267.802" stroke="#A4ABAF" stroke-width="2"/>
<line x1="619.611" y1="355.391" x2="648.323" y2="390.502" stroke="#A4ABAF" stroke-width="2"/>
<line x1="615.789" y1="248.551" x2="633.883" y2="269.587" stroke="#A4ABAF" stroke-width="2"/>
<line x1="620.072" y1="368.38" x2="639.712" y2="392.252" stroke="#A4ABAF" stroke-width="2"/>
<line x1="620.491" y1="381.323" x2="631.007" y2="392.511" stroke="#A4ABAF" stroke-width="2"/>
<line x1="767.032" y1="268.359" x2="768.574" y2="311.665" stroke="#A4ABAF" stroke-width="2"/>
<line x1="741.048" y1="269.285" x2="742.642" y2="314.034" stroke="#A4ABAF" stroke-width="2"/>
<line x1="170.906" y1="291.04" x2="172.449" y2="334.346" stroke="#A4ABAF" stroke-width="2"/>
<line x1="144.871" y1="290.522" x2="146.413" y2="333.828" stroke="#A4ABAF" stroke-width="2"/>
<path d="M132.771 379.251C132.746 378.549 132.345 378.158 131.645 377.985C132.176 377.714 132.52 377.27 132.498 376.631C132.453 375.363 131.048 375.134 128.863 375.455L129.061 381.031C131.23 381.233 132.824 380.726 132.771 379.251ZM129.906 376.192C130.901 376.04 131.494 376.253 131.517 376.918C131.54 377.566 131.154 377.85 129.966 377.856L129.906 376.192ZM130.05 380.221L129.991 378.566C131.131 378.472 131.73 378.595 131.756 379.332C131.784 380.097 131.198 380.334 130.05 380.221ZM137.428 380.841L137.497 380.001C135.517 380.027 134.832 379.754 134.692 378.858L137.576 378.675C137.682 377.113 137.044 376.145 135.785 376.19C134.607 376.232 133.637 377.329 133.687 378.705C133.738 380.162 134.533 380.971 137.428 380.841ZM135.635 377.015C136.255 376.992 136.55 377.423 136.602 378.133C136.045 378.171 135.138 378.23 134.661 378.265C134.677 377.427 135.023 377.036 135.635 377.015ZM140.448 379.968C139.989 379.984 139.684 379.761 139.67 379.365C139.652 378.871 140.011 378.561 141.401 378.655C141.423 379.024 141.434 379.321 141.461 379.581C141.154 379.808 140.79 379.956 140.448 379.968ZM141.624 380.611L142.539 380.533C142.472 379.914 142.411 379.205 142.38 378.332C142.318 376.587 141.623 376.054 138.924 376.105L138.855 376.954C140.782 376.948 141.284 377.138 141.368 377.999C139.477 377.985 138.657 378.735 138.689 379.635C138.715 380.363 139.279 380.784 140.08 380.756C140.727 380.733 141.194 380.419 141.523 380.074C141.558 380.289 141.613 380.575 141.624 380.611ZM147.089 380.389L147.143 379.631L145.785 379.679C145.733 378.726 145.697 377.971 145.655 377.297C146.15 377.036 146.765 376.852 147.537 376.78L147.454 375.72C146.613 375.858 145.987 376.25 145.599 376.732C145.573 376.507 145.501 376.006 145.491 375.961L143.638 376.027L143.582 376.74L144.646 376.775C144.692 377.566 144.735 378.501 144.796 379.714L143.708 379.753L143.735 380.508L147.089 380.389ZM151.05 375.088L151.087 373.826L150.034 373.863L150.016 375.124L151.05 375.088ZM152.736 380.188L152.79 379.429L151.234 379.485L151.101 375.761L148.601 375.85L148.545 376.564L150.122 376.58L150.227 379.521L148.671 379.576L148.698 380.332L152.736 380.188ZM155.47 376.344C155.929 376.328 156.235 376.569 156.263 377.36L156.359 380.059L157.357 380.023L157.249 376.974C157.21 375.886 156.69 375.445 155.908 375.473C155.287 375.495 154.838 375.799 154.49 376.136L154.418 375.625L153.493 375.712C153.584 376.726 153.652 378.138 153.724 380.153L154.731 380.117C154.68 378.678 154.62 377.509 154.572 376.673C154.845 376.483 155.128 376.356 155.47 376.344ZM159.13 381.536C161.68 381.319 162.255 380.272 162.196 378.635C162.17 377.907 162.092 375.973 162.057 375.479C161.602 375.36 161.15 375.295 160.7 375.311C159.378 375.358 158.304 376.306 158.355 377.727C158.396 378.879 159.131 379.564 160.067 379.53C160.544 379.513 160.916 379.338 161.205 379.112C161.218 380.246 160.99 380.407 159.008 380.64L159.13 381.536ZM160.426 378.734C159.841 378.755 159.367 378.349 159.336 377.458C159.306 376.631 159.732 376.192 160.37 376.169C160.604 376.161 160.849 376.197 161.103 376.26L161.183 378.518C160.945 378.644 160.687 378.725 160.426 378.734ZM172.328 379.49L172.379 378.651L171.03 378.699L170.854 373.779L169.895 373.894L169.918 374.551L168.538 374.744L168.582 375.472L169.948 375.387L170.067 378.733L168.556 378.787L168.586 379.623L172.328 379.49Z" fill="#A4ABAF"/>
<path d="M135.531 237.791L136.632 237.617L135.233 235.253C135.741 234.857 136.111 234.357 136.086 233.656C136.044 232.495 135.155 231.789 132.406 232.247L132.605 237.814L133.621 237.778L133.552 235.853L134.433 235.804L135.531 237.791ZM133.451 232.993C134.534 232.81 135.051 233.179 135.077 233.917C135.095 234.402 134.866 234.807 134.506 235.072L133.527 235.134L133.451 232.993Z" fill="#A4ABAF"/>
<path d="M141.743 243.183L142.437 243.11C142.075 241.886 141.701 240.675 141.291 239.447L140.338 239.481C140.01 240.735 139.731 241.994 139.457 243.24L140.141 243.216C140.213 242.871 140.278 242.521 140.35 242.176L141.453 242.137C141.55 242.487 141.646 242.838 141.743 243.183ZM140.802 240.028L140.85 240.027C141.007 240.556 141.164 241.096 141.315 241.637L140.452 241.668C140.564 241.118 140.683 240.573 140.802 240.028ZM143.056 244.175C144.126 244.041 144.433 243.748 144.822 242.527C145.12 241.628 145.382 240.718 145.574 240.033L144.932 240.055C144.861 240.256 144.504 241.692 144.339 242.274L144.279 242.276C143.98 241.626 143.63 240.738 143.36 240.087L142.684 240.16C142.933 240.745 143.608 242.312 143.912 242.932L144.027 242.97C143.868 243.377 143.684 243.45 142.98 243.577L143.056 244.175Z" fill="#A4ABAF"/>
<path d="M747.741 220.319L748.843 220.145L747.444 217.781C747.952 217.385 748.321 216.885 748.296 216.184C748.255 215.023 747.365 214.316 744.617 214.775L744.815 220.342L745.831 220.306L745.763 218.381L746.644 218.332L747.741 220.319ZM745.661 215.521C746.744 215.338 747.262 215.707 747.288 216.445C747.305 216.93 747.076 217.335 746.717 217.6L745.737 217.662L745.661 215.521Z" fill="#A4ABAF"/>
<path d="M754.483 224.569C754.466 224.102 754.199 223.841 753.732 223.725C754.086 223.545 754.316 223.248 754.301 222.823C754.271 221.977 753.335 221.824 751.877 222.038L752.01 225.756C753.455 225.891 754.518 225.553 754.483 224.569ZM752.573 222.53C753.236 222.428 753.631 222.57 753.647 223.014C753.662 223.446 753.405 223.635 752.613 223.639L752.573 222.53ZM752.669 225.216L752.63 224.113C753.39 224.05 753.789 224.132 753.806 224.623C753.825 225.133 753.434 225.291 752.669 225.216ZM755.266 226.703C756.336 226.569 756.644 226.275 757.033 225.055C757.331 224.156 757.593 223.246 757.784 222.56L757.143 222.583C757.072 222.784 756.715 224.22 756.549 224.802L756.489 224.804C756.19 224.154 755.84 223.266 755.571 222.615L754.895 222.687C755.144 223.273 755.818 224.84 756.123 225.459L756.238 225.497C756.078 225.905 755.895 225.978 755.191 226.105L755.266 226.703Z" fill="#A4ABAF"/>
<path d="M704.218 337.498L705.32 337.324L703.921 334.96C704.429 334.564 704.799 334.064 704.774 333.363C704.732 332.202 703.843 331.496 701.094 331.954L701.292 337.521L702.309 337.485L702.24 335.56L703.121 335.511L704.218 337.498ZM702.138 332.7C703.222 332.517 703.739 332.886 703.765 333.624C703.783 334.11 703.554 334.514 703.194 334.779L702.215 334.841L702.138 332.7Z" fill="#A4ABAF"/>
<path d="M710.96 341.748C710.944 341.281 710.676 341.02 710.21 340.905C710.564 340.724 710.793 340.428 710.778 340.002C710.748 339.156 709.812 339.004 708.355 339.218L708.487 342.935C709.933 343.07 710.995 342.732 710.96 341.748ZM709.05 339.709C709.713 339.607 710.109 339.749 710.124 340.193C710.14 340.625 709.882 340.814 709.09 340.818L709.05 339.709ZM709.146 342.395L709.107 341.292C709.867 341.229 710.266 341.311 710.284 341.803C710.302 342.312 709.911 342.47 709.146 342.395ZM714.17 342.733L714.197 342.137L712.435 342.224L714.072 340.305L714.052 339.747L711.635 339.833L711.602 340.423L713.311 340.344L711.668 342.258L711.688 342.821L714.17 342.733Z" fill="#A4ABAF"/>
<path d="M105.308 363.169L106.41 362.994L105.011 360.631C105.519 360.234 105.888 359.735 105.863 359.033C105.822 357.873 104.932 357.166 102.184 357.624L102.382 363.192L103.399 363.156L103.33 361.231L104.211 361.181L105.308 363.169ZM103.228 358.371C104.311 358.188 104.829 358.557 104.855 359.294C104.872 359.78 104.644 360.184 104.284 360.449L103.304 360.511L103.228 358.371Z" fill="#A4ABAF"/>
<path d="M111.52 368.561L112.214 368.488C111.852 367.264 111.479 366.052 111.069 364.824L110.116 364.858C109.788 366.113 109.509 367.371 109.235 368.618L109.918 368.594C109.99 368.249 110.056 367.898 110.128 367.554L111.231 367.514C111.327 367.865 111.424 368.216 111.52 368.561ZM110.579 365.406L110.627 365.404C110.784 365.933 110.942 366.474 111.093 367.015L110.23 367.046C110.342 366.495 110.461 365.951 110.579 365.406ZM115.26 368.403L115.287 367.808L113.525 367.895L115.161 365.975L115.142 365.418L112.725 365.504L112.692 366.093L114.4 366.014L112.757 367.928L112.778 368.492L115.26 368.403Z" fill="#A4ABAF"/>
<path d="M348.361 471.432C348.326 470.713 348.296 469.858 348.255 468.716L347.302 468.75C347.335 469.433 347.391 470.242 347.42 470.808C345.982 470.886 345.443 470.158 345.394 468.8C345.353 467.648 345.684 466.835 347.972 466.844L347.874 465.857C345.098 466.037 344.29 467.38 344.348 469.008C344.419 471.005 345.719 472.111 348.361 471.432ZM353.123 471.442L353.193 470.602C351.212 470.628 350.527 470.355 350.387 469.459L353.271 469.276C353.378 467.714 352.74 466.746 351.481 466.791C350.302 466.833 349.333 467.93 349.382 469.306C349.434 470.763 350.228 471.572 353.123 471.442ZM351.33 467.616C351.951 467.594 352.245 468.024 352.297 468.734C351.74 468.772 350.833 468.831 350.357 468.866C350.372 468.028 350.718 467.637 351.33 467.616ZM356.143 470.569C355.685 470.586 355.38 470.362 355.365 469.967C355.348 469.472 355.706 469.162 357.096 469.256C357.118 469.625 357.129 469.922 357.156 470.182C356.849 470.409 356.485 470.557 356.143 470.569ZM357.319 471.212L358.235 471.134C358.168 470.515 358.107 469.806 358.075 468.933C358.013 467.188 357.319 466.655 354.619 466.706L354.55 467.555C356.477 467.549 356.979 467.739 357.064 468.6C355.172 468.587 354.352 469.336 354.384 470.236C354.41 470.964 354.975 471.385 355.775 471.357C356.423 471.334 356.889 471.02 357.219 470.675C357.254 470.89 357.309 471.176 357.319 471.212ZM362.785 470.99L362.839 470.232L361.481 470.28C361.429 469.327 361.393 468.572 361.351 467.898C361.846 467.637 362.461 467.453 363.233 467.381L363.15 466.321C362.308 466.459 361.683 466.851 361.295 467.333C361.269 467.109 361.197 466.607 361.186 466.562L359.333 466.628L359.278 467.342L360.342 467.376C360.388 468.167 360.43 469.102 360.491 470.315L359.403 470.354L359.43 471.11L362.785 470.99ZM373.188 470.619L373.239 469.78L371.89 469.828L371.715 464.908L370.755 465.024L370.778 465.68L369.398 465.873L369.442 466.601L370.808 466.517L370.927 469.862L369.416 469.916L369.446 470.753L373.188 470.619Z" fill="#A4ABAF"/>
<path d="M618.253 419.902C618.218 419.183 618.188 418.328 618.147 417.186L617.194 417.22C617.227 417.903 617.283 418.712 617.312 419.278C615.874 419.356 615.335 418.628 615.286 417.27C615.245 416.119 615.577 415.306 617.864 415.314L617.766 414.327C614.99 414.507 614.182 415.85 614.24 417.478C614.311 419.475 615.611 420.582 618.253 419.902ZM623.016 419.913L623.085 419.073C621.104 419.098 620.419 418.825 620.279 417.93L623.164 417.746C623.27 416.184 622.632 415.216 621.373 415.261C620.195 415.303 619.225 416.4 619.274 417.776C619.326 419.234 620.12 420.043 623.016 419.913ZM621.222 416.086C621.843 416.064 622.137 416.495 622.19 417.204C621.633 417.242 620.725 417.301 620.249 417.336C620.264 416.498 620.611 416.108 621.222 416.086ZM626.036 419.04C625.577 419.056 625.272 418.833 625.258 418.437C625.24 417.942 625.598 417.632 626.989 417.727C627.011 418.095 627.021 418.392 627.049 418.652C626.741 418.879 626.377 419.027 626.036 419.04ZM627.211 419.682L628.127 419.604C628.06 418.985 627.999 418.276 627.968 417.404C627.906 415.659 627.211 415.125 624.511 415.176L624.442 416.025C626.369 416.02 626.871 416.209 626.956 417.071C625.064 417.057 624.245 417.807 624.277 418.706C624.303 419.434 624.867 419.856 625.667 419.827C626.315 419.804 626.781 419.49 627.111 419.145C627.146 419.36 627.201 419.646 627.211 419.682ZM632.677 419.46L632.731 418.702L631.373 418.75C631.321 417.798 631.285 417.042 631.243 416.368C631.738 416.108 632.353 415.924 633.125 415.851L633.042 414.791C632.201 414.929 631.575 415.321 631.187 415.803C631.161 415.579 631.089 415.077 631.078 415.032L629.226 415.098L629.17 415.812L630.234 415.846C630.28 416.637 630.322 417.572 630.384 418.786L629.295 418.824L629.322 419.58L632.677 419.46ZM642.963 419.094L642.932 418.231L640.405 418.321C641.865 417.089 642.717 416.239 642.677 415.106C642.644 414.179 641.861 413.451 639.29 413.569L639.242 414.499C641.123 414.459 641.674 414.772 641.697 415.402C641.726 416.229 640.847 417.071 639.211 418.435L639.338 419.223L642.963 419.094Z" fill="#A4ABAF"/>
<path d="M728.846 355.127C728.821 354.425 728.42 354.034 727.72 353.861C728.251 353.59 728.595 353.145 728.572 352.507C728.527 351.239 727.123 351.01 724.937 351.331L725.136 356.907C727.304 357.109 728.898 356.602 728.846 355.127ZM725.981 352.068C726.975 351.915 727.568 352.128 727.592 352.794C727.615 353.442 727.229 353.725 726.04 353.732L725.981 352.068ZM726.125 356.097L726.066 354.442C727.206 354.348 727.805 354.47 727.831 355.208C727.858 355.973 727.272 356.21 726.125 356.097ZM733.503 356.717L733.572 355.877C731.591 355.903 730.906 355.63 730.766 354.734L733.65 354.55C733.757 352.989 733.119 352.021 731.86 352.066C730.682 352.108 729.712 353.205 729.761 354.581C729.813 356.038 730.607 356.847 733.503 356.717ZM731.709 352.89C732.33 352.868 732.624 353.299 732.677 354.009C732.12 354.047 731.212 354.106 730.736 354.141C730.751 353.303 731.098 352.912 731.709 352.89ZM736.523 355.844C736.064 355.86 735.759 355.637 735.745 355.241C735.727 354.747 736.085 354.437 737.475 354.531C737.498 354.9 737.508 355.196 737.535 355.457C737.228 355.684 736.864 355.832 736.523 355.844ZM737.698 356.487L738.614 356.409C738.547 355.79 738.486 355.081 738.455 354.208C738.392 352.463 737.698 351.93 734.998 351.981L734.929 352.83C736.856 352.824 737.358 353.013 737.443 353.875C735.551 353.861 734.732 354.611 734.764 355.51C734.79 356.239 735.354 356.66 736.154 356.632C736.802 356.609 737.268 356.295 737.598 355.95C737.633 356.165 737.688 356.451 737.698 356.487ZM743.164 356.265L743.218 355.506L741.86 355.555C741.808 354.602 741.772 353.847 741.73 353.173C742.225 352.912 742.84 352.728 743.612 352.656L743.529 351.596C742.687 351.734 742.062 352.125 741.674 352.608C741.648 352.383 741.576 351.882 741.565 351.837L739.713 351.903L739.657 352.616L740.721 352.65C740.767 353.441 740.809 354.376 740.871 355.59L739.782 355.629L739.809 356.384L743.164 356.265ZM747.125 350.963L747.161 349.701L746.109 349.739L746.091 351L747.125 350.963ZM748.811 356.064L748.865 355.305L747.309 355.361L747.176 351.637L744.676 351.726L744.62 352.44L746.197 352.455L746.301 355.397L744.745 355.452L744.772 356.208L748.811 356.064ZM751.545 352.22C752.004 352.204 752.309 352.445 752.338 353.236L752.434 355.935L753.432 355.899L753.323 352.85C753.285 351.762 752.765 351.321 751.982 351.349C751.361 351.371 750.913 351.675 750.565 352.012L750.493 351.501L749.568 351.588C749.658 352.602 749.727 354.014 749.798 356.028L750.806 355.993C750.754 354.554 750.695 353.385 750.647 352.549C750.919 352.359 751.203 352.232 751.545 352.22ZM755.204 357.412C757.754 357.195 758.329 356.148 758.271 354.511C758.245 353.782 758.167 351.849 758.131 351.355C757.677 351.236 757.224 351.171 756.775 351.187C755.452 351.234 754.379 352.182 754.429 353.603C754.47 354.754 755.206 355.44 756.141 355.406C756.618 355.389 756.99 355.214 757.279 354.988C757.293 356.122 757.064 356.283 755.082 356.516L755.204 357.412ZM756.5 354.61C755.916 354.631 755.442 354.224 755.41 353.334C755.381 352.507 755.806 352.068 756.445 352.045C756.679 352.037 756.923 352.073 757.178 352.136L757.258 354.394C757.019 354.519 756.761 354.601 756.5 354.61ZM768.285 355.37L768.255 354.506L765.727 354.597C767.187 353.365 768.04 352.515 767.999 351.382C767.966 350.455 767.184 349.727 764.612 349.845L764.564 350.774C766.445 350.735 766.997 351.048 767.019 351.678C767.049 352.505 766.169 353.347 764.533 354.711L764.661 355.499L768.285 355.37Z" fill="#A4ABAF"/>
<line x1="353.124" y1="147.24" x2="351.479" y2="101.047" stroke="#FFAF46" stroke-width="2"/>
<path d="M352.937 154.473L357.436 140.221L347.435 140.577L352.937 154.473Z" fill="#FFAF46"/>
<line x1="159.368" y1="307.35" x2="157.363" y2="251.052" stroke="#FFAF46" stroke-width="2"/>
<path d="M159.181 314.583L163.68 300.331L153.679 300.687L159.181 314.583Z" fill="#FFAF46"/>
<line x1="754.051" y1="284.721" x2="752.405" y2="238.528" stroke="#FFAF46" stroke-width="2"/>
<path d="M753.863 291.954L758.363 277.702L748.362 278.058L753.863 291.954Z" fill="#FFAF46"/>
<line x1="153.795" y1="320.219" x2="113.531" y2="354.573" stroke="#FFAF46" stroke-width="2"/>
<path d="M158.798 315.698L145.401 322.025L151.72 328.714L158.798 315.698Z" fill="#FFAF46"/>
<line x1="748.473" y1="297.593" x2="711.993" y2="328.443" stroke="#FFAF46" stroke-width="2"/>
<path d="M753.481 293.069L740.084 299.395L746.403 306.084L753.481 293.069Z" fill="#FFAF46"/>
<line x1="627.34" y1="176.496" x2="625.848" y2="134.634" stroke="#FFAF46" stroke-width="2"/>
<path d="M627.153 183.73L631.652 169.477L621.651 169.834L627.153 183.73Z" fill="#FFAF46"/>
<line x1="361.266" y1="149.042" x2="392.314" y2="112.391" stroke="#FFAF46" stroke-width="2"/>
<path d="M355.757 153.79L361.228 139.843L368.9 146.597L355.757 153.79Z" fill="#FFAF46"/>
<line x1="622.808" y1="190.138" x2="590.023" y2="219.069" stroke="#FFAF46" stroke-width="2"/>
<path d="M628.319 185.494L620.899 198.177L615.169 192.052L628.319 185.494Z" fill="#FFAF46"/>
<path d="M162.948 320.6L161.902 320.565C162.313 318.696 162.742 316.843 163.224 314.962L164.654 314.911C165.278 316.753 165.831 318.606 166.373 320.442L165.348 320.479C165.204 319.971 165.068 319.453 164.924 318.945L163.269 319.004C163.162 319.539 163.055 320.074 162.948 320.6ZM164.019 315.78L163.947 315.783C163.769 316.591 163.591 317.416 163.422 318.242L164.717 318.196C164.49 317.384 164.255 316.582 164.019 315.78Z" fill="#A4ABAF"/>
<path d="M761.485 297.595C761.46 296.893 761.059 296.502 760.359 296.329C760.89 296.058 761.234 295.614 761.212 294.975C761.166 293.707 759.762 293.478 757.576 293.799L757.775 299.375C759.944 299.577 761.538 299.07 761.485 297.595ZM758.62 294.536C759.614 294.384 760.207 294.597 760.231 295.262C760.254 295.91 759.868 296.194 758.68 296.2L758.62 294.536ZM758.764 298.566L758.705 296.911C759.845 296.816 760.444 296.939 760.47 297.676C760.497 298.441 759.912 298.678 758.764 298.566Z" fill="#A4ABAF"/>
<path d="M348.413 87.1171L349.514 86.9427L348.115 84.5791C348.623 84.1827 348.993 83.6832 348.968 82.9817C348.927 81.8214 348.037 81.1146 345.288 81.5728L345.487 87.1402L346.503 87.104L346.435 85.1793L347.315 85.1299L348.413 87.1171ZM346.333 82.3191C347.416 82.1364 347.933 82.5052 347.96 83.2427C347.977 83.7284 347.748 84.1328 347.388 84.3978L346.409 84.4597L346.333 82.3191Z" fill="#A4ABAF"/>
<path d="M355.084 92.4206C355.061 91.9411 355.041 91.3715 355.014 90.61L354.378 90.6326C354.4 91.0881 354.437 91.6271 354.457 92.0047C353.498 92.0569 353.139 91.5713 353.106 90.6659C353.079 89.8984 353.3 89.3562 354.825 89.3619L354.76 88.7038C352.909 88.8238 352.37 89.7195 352.409 90.8048C352.456 92.136 353.323 92.8736 355.084 92.4206ZM358.448 92.3488L358.483 91.7892L357.583 91.8213L357.466 88.5414L356.827 88.6182L356.842 89.0559L355.922 89.1847L355.951 89.67L356.862 89.6135L356.942 91.8441L355.934 91.88L355.954 92.4377L358.448 92.3488ZM359.235 93.3835C360.304 93.2493 360.612 92.9562 361.001 91.7355C361.299 90.8364 361.561 89.9265 361.753 89.2412L361.111 89.2641C361.04 89.4647 360.683 90.9003 360.518 91.4826L360.458 91.4847C360.158 90.835 359.809 89.9469 359.539 89.296L358.863 89.3681C359.112 89.9536 359.787 91.5206 360.091 92.1402L360.206 92.1781C360.047 92.5861 359.863 92.6586 359.159 92.7858L359.235 93.3835Z" fill="#A4ABAF"/>
<path d="M618.298 116.528L619.399 116.354L618 113.99C618.508 113.594 618.878 113.094 618.853 112.393C618.811 111.232 617.922 110.526 615.173 110.984L615.372 116.551L616.388 116.515L616.319 114.59L617.2 114.541L618.298 116.528ZM616.217 111.73C617.301 111.547 617.818 111.916 617.844 112.654C617.862 113.139 617.633 113.544 617.273 113.809L616.294 113.871L616.217 111.73Z" fill="#A4ABAF"/>
<path d="M624.969 121.831C624.946 121.352 624.925 120.782 624.898 120.021L624.263 120.043C624.285 120.499 624.322 121.038 624.342 121.416C623.383 121.468 623.023 120.982 622.991 120.077C622.964 119.309 623.185 118.767 624.71 118.773L624.644 118.115C622.793 118.235 622.255 119.13 622.294 120.216C622.341 121.547 623.208 122.284 624.969 121.831ZM628.255 121.762L628.235 121.187L626.55 121.247C627.523 120.426 628.091 119.859 628.064 119.104C628.042 118.486 627.521 118 625.807 118.079L625.775 118.699C627.028 118.672 627.396 118.881 627.411 119.301C627.431 119.853 626.844 120.414 625.754 121.323L625.839 121.849L628.255 121.762ZM629.119 122.794C630.189 122.66 630.497 122.367 630.886 121.146C631.184 120.247 631.446 119.337 631.637 118.652L630.996 118.675C630.925 118.876 630.568 120.311 630.403 120.893L630.343 120.896C630.043 120.246 629.693 119.358 629.424 118.707L628.748 118.779C628.997 119.365 629.671 120.931 629.976 121.551L630.091 121.589C629.931 121.997 629.748 122.069 629.044 122.197L629.119 122.794Z" fill="#A4ABAF"/>
<path d="M398.161 104.135L399.263 103.96L397.864 101.597C398.372 101.2 398.741 100.701 398.716 99.9992C398.675 98.8389 397.785 98.1322 395.037 98.5903L395.235 104.158L396.252 104.122L396.183 102.197L397.064 102.147L398.161 104.135ZM396.081 99.3366C397.164 99.1539 397.682 99.5227 397.708 100.26C397.725 100.746 397.497 101.15 397.137 101.415L396.157 101.477L396.081 99.3366Z" fill="#A4ABAF"/>
<path d="M404.833 109.438C404.809 108.959 404.789 108.389 404.762 107.628L404.126 107.65C404.149 108.106 404.186 108.645 404.205 109.022C403.247 109.074 402.887 108.589 402.855 107.683C402.827 106.916 403.048 106.374 404.573 106.379L404.508 105.721C402.657 105.841 402.119 106.737 402.157 107.822C402.205 109.154 403.072 109.891 404.833 109.438ZM408.197 109.366L408.231 108.807L407.332 108.839L407.215 105.559L406.575 105.636L406.591 106.073L405.671 106.202L405.7 106.688L406.611 106.631L406.69 108.862L405.683 108.898L405.702 109.455L408.197 109.366ZM411.41 109.252L411.437 108.657L409.674 108.743L411.311 106.824L411.291 106.266L408.875 106.352L408.842 106.942L410.55 106.863L408.907 108.777L408.927 109.34L411.41 109.252Z" fill="#A4ABAF"/>
<path d="M156.366 215.692C155.962 215.315 155.329 215.338 154.952 215.742L148.819 222.329C148.443 222.733 148.465 223.365 148.869 223.742C149.274 224.118 149.906 224.096 150.283 223.691L155.735 217.837L161.589 223.289C161.993 223.665 162.626 223.643 163.003 223.238C163.379 222.834 163.356 222.201 162.952 221.825L156.366 215.692ZM157.661 243.815L156.684 216.388L154.685 216.459L155.662 243.886L157.661 243.815Z" fill="#A4ABAF"/>
<path d="M75.4618 386.116C75.4076 386.666 75.8092 387.155 76.3588 387.21L85.3153 388.093C85.8649 388.147 86.3544 387.746 86.4086 387.196C86.4629 386.647 86.0613 386.157 85.5117 386.103L77.5503 385.317L78.3358 377.356C78.39 376.806 77.9884 376.317 77.4388 376.263C76.8892 376.209 76.3997 376.61 76.3455 377.16L75.4618 386.116ZM97.0405 368.034L75.8227 385.441L77.0912 386.988L98.309 369.581L97.0405 368.034Z" fill="#A4ABAF"/>
<path d="M153.103 205.167C154.886 204.944 155.399 204.455 156.047 202.421C156.544 200.922 156.98 199.405 157.3 198.263L156.231 198.301C156.113 198.636 155.517 201.029 155.242 201.999L155.142 202.003C154.643 200.92 154.06 199.439 153.611 198.355L152.484 198.475C152.899 199.451 154.023 202.062 154.53 203.095L154.723 203.158C154.457 203.838 154.151 203.959 152.978 204.171L153.103 205.167Z" fill="#A4ABAF"/>
<path d="M68.5594 394.305L68.6041 393.312L65.6673 393.457L68.3952 390.258L68.3621 389.328L64.3346 389.472L64.2796 390.454L67.1267 390.323L64.3885 393.513L64.422 394.452L68.5594 394.305Z" fill="#A4ABAF"/>
<path d="M572.971 223.654L574.073 223.48L572.674 221.116C573.182 220.72 573.551 220.22 573.526 219.518C573.485 218.358 572.595 217.651 569.847 218.11L570.045 223.677L571.062 223.641L570.993 221.716L571.874 221.667L572.971 223.654ZM570.891 218.856C571.974 218.673 572.492 219.042 572.518 219.78C572.535 220.265 572.307 220.67 571.947 220.935L570.967 220.997L570.891 218.856Z" fill="#A4ABAF"/>
<path d="M579.643 228.957C579.619 228.478 579.599 227.908 579.572 227.147L578.936 227.169C578.959 227.625 578.996 228.164 579.015 228.541C578.057 228.594 577.697 228.108 577.665 227.203C577.638 226.435 577.858 225.893 579.384 225.899L579.318 225.241C577.467 225.361 576.929 226.256 576.967 227.342C577.015 228.673 577.882 229.41 579.643 228.957ZM582.929 228.888L582.909 228.313L581.224 228.373C582.197 227.552 582.765 226.985 582.738 226.229C582.716 225.612 582.195 225.126 580.48 225.205L580.448 225.825C581.702 225.798 582.07 226.007 582.085 226.427C582.105 226.979 581.518 227.54 580.428 228.449L580.513 228.974L582.929 228.888ZM586.22 228.771L586.247 228.176L584.485 228.263L586.121 226.343L586.101 225.785L583.685 225.872L583.652 226.461L585.36 226.382L583.717 228.296L583.737 228.86L586.22 228.771Z" fill="#A4ABAF"/>
<defs>
<filter id="filter0_d" x="0.347961" y="0.347961" width="881.932" height="616.289" filterUnits="userSpaceOnUse" color-interpolation-filters="sRGB">
<feFlood flood-opacity="0" result="BackgroundImageFix"/>
<feColorMatrix in="SourceAlpha" type="matrix" values="0 0 0 0 0 0 0 0 0 0 0 0 0 0 0 0 0 0 127 0"/>
<feOffset dx="-5" dy="7"/>
<feGaussianBlur stdDeviation="11.5"/>
<feColorMatrix type="matrix" values="0 0 0 0 0 0 0 0 0 0 0 0 0 0 0 0 0 0 0.8 0"/>
<feBlend mode="normal" in2="BackgroundImageFix" result="effect1_dropShadow"/>
<feBlend mode="normal" in="SourceGraphic" in2="effect1_dropShadow" result="shape"/>
</filter>
</defs>
</svg>
