<svg width="522" height="276" viewBox="0 0 522 276" fill="none" xmlns="http://www.w3.org/2000/svg">
<line x1="220" y1="184.5" x2="386" y2="184.5" stroke="#313131"/>
<line y1="-0.5" x2="166" y2="-0.5" transform="matrix(1 0 0 -1 220 130)" stroke="#313131"/>
<line x1="384.999" y1="130.5" x2="218.999" y2="130.5" stroke="#313131"/>
<line y1="-0.5" x2="166" y2="-0.5" transform="matrix(-1 0 0 1 385 185)" stroke="#313131"/>
<line x1="385.5" y1="185" x2="385.5" y2="175" stroke="#313131"/>
<line y1="-0.5" x2="10" y2="-0.5" transform="matrix(0 1 1 0 386 130)" stroke="#313131"/>
<line x1="219.499" y1="130" x2="219.499" y2="140" stroke="#313131"/>
<line y1="-0.5" x2="10" y2="-0.5" transform="matrix(0 -1 -1 0 219 185)" stroke="#313131"/>
<line x1="385" y1="175.5" x2="471" y2="175.562" stroke="#313131"/>
<line y1="-0.5" x2="85.9993" y2="-0.5" transform="matrix(1 -0.000717672 -0.000717672 -1 385 139)" stroke="#313131"/>
<line x1="220" y1="139.5" x2="77" y2="139.5" stroke="#313131"/>
<line x1="219.999" y1="175.515" x2="76.9999" y2="175.5" stroke="#313131"/>
<line x1="27" y1="157.5" x2="59" y2="157.5" stroke="#313131"/>
<line x1="81" y1="157.5" x2="105" y2="157.5" stroke="#313131"/>
<line x1="127" y1="157.5" x2="151" y2="157.5" stroke="#313131"/>
<line x1="172" y1="157.5" x2="196" y2="157.5" stroke="#313131"/>
<line x1="218" y1="157.5" x2="242" y2="157.5" stroke="#313131"/>
<line x1="263" y1="157.5" x2="287" y2="157.5" stroke="#313131"/>
<line x1="309" y1="157.5" x2="333" y2="157.5" stroke="#313131"/>
<line x1="355" y1="157.5" x2="379" y2="157.5" stroke="#313131"/>
<line x1="400" y1="157.5" x2="424" y2="157.5" stroke="#313131"/>
<line x1="446" y1="157.5" x2="470" y2="157.5" stroke="#313131"/>
<line x1="491" y1="157.5" x2="522" y2="157.5" stroke="#313131"/>
<line x1="219.5" y1="54" x2="219.5" y2="131" stroke="#313131"/>
<line x1="219.5" y1="54" x2="219.5" y2="131" stroke="#313131"/>
<line x1="220" y1="54.5" x2="192" y2="54.5" stroke="#313131"/>
<line x1="220" y1="54.5" x2="192" y2="54.5" stroke="#313131"/>
<line x1="192.5" y1="54" x2="192.5" y2="140" stroke="#313131"/>
<line x1="192.5" y1="54" x2="192.5" y2="140" stroke="#313131"/>
<line x1="192.5" y1="176" x2="192.5" y2="262" stroke="#313131"/>
<line x1="219.5" y1="185" x2="219.5" y2="262" stroke="#313131"/>
<line x1="192" y1="261.5" x2="219" y2="261.5" stroke="#313131"/>
<line x1="213.354" y1="63.6464" x2="219.354" y2="69.6464" stroke="#313131"/>
<line x1="213.354" y1="63.6464" x2="219.354" y2="69.6464" stroke="#313131"/>
<line x1="213.354" y1="175.646" x2="219.354" y2="181.646" stroke="#313131"/>
<line x1="205.354" y1="63.6464" x2="219.354" y2="77.6464" stroke="#313131"/>
<line x1="205.354" y1="63.6464" x2="219.354" y2="77.6464" stroke="#313131"/>
<line x1="205.354" y1="175.646" x2="219.354" y2="189.646" stroke="#313131"/>
<line x1="197.354" y1="63.6464" x2="219.354" y2="85.6464" stroke="#313131"/>
<line x1="197.354" y1="63.6464" x2="219.354" y2="85.6464" stroke="#313131"/>
<line x1="197.354" y1="175.646" x2="219.354" y2="197.646" stroke="#313131"/>
<line x1="192.354" y1="66.6464" x2="219.354" y2="93.6464" stroke="#313131"/>
<line x1="192.354" y1="66.6464" x2="219.354" y2="93.6464" stroke="#313131"/>
<line x1="192.354" y1="178.646" x2="219.354" y2="205.646" stroke="#313131"/>
<line x1="192.354" y1="74.6464" x2="219.354" y2="101.646" stroke="#313131"/>
<line x1="192.354" y1="74.6464" x2="219.354" y2="101.646" stroke="#313131"/>
<line x1="192.354" y1="186.646" x2="219.354" y2="213.646" stroke="#313131"/>
<line x1="192.354" y1="82.6464" x2="219.354" y2="109.646" stroke="#313131"/>
<line x1="192.354" y1="82.6464" x2="219.354" y2="109.646" stroke="#313131"/>
<line x1="192.354" y1="194.646" x2="219.354" y2="221.646" stroke="#313131"/>
<line x1="192.354" y1="90.6464" x2="219.354" y2="117.646" stroke="#313131"/>
<line x1="192.354" y1="90.6464" x2="219.354" y2="117.646" stroke="#313131"/>
<line x1="192.354" y1="202.646" x2="219.354" y2="229.646" stroke="#313131"/>
<line x1="192.354" y1="98.6464" x2="219.354" y2="125.646" stroke="#313131"/>
<line x1="192.354" y1="98.6464" x2="219.354" y2="125.646" stroke="#313131"/>
<line x1="192.354" y1="210.646" x2="219.354" y2="237.646" stroke="#313131"/>
<line x1="192.354" y1="106.646" x2="219.354" y2="133.646" stroke="#313131"/>
<line x1="192.354" y1="106.646" x2="219.354" y2="133.646" stroke="#313131"/>
<line x1="192.354" y1="218.646" x2="219.354" y2="245.646" stroke="#313131"/>
<line x1="192.354" y1="114.646" x2="217.354" y2="139.646" stroke="#313131"/>
<line x1="192.354" y1="114.646" x2="217.354" y2="139.646" stroke="#313131"/>
<line x1="192.347" y1="226.64" x2="218.347" y2="251.64" stroke="#313131"/>
<line x1="192.343" y1="122.636" x2="210.343" y2="139.636" stroke="#313131"/>
<line x1="192.343" y1="122.636" x2="210.343" y2="139.636" stroke="#313131"/>
<line x1="192.343" y1="234.636" x2="210.343" y2="251.636" stroke="#313131"/>
<line x1="192.334" y1="130.628" x2="202.334" y2="139.628" stroke="#313131"/>
<line x1="192.354" y1="241.646" x2="202.354" y2="251.646" stroke="#313131"/>
<rect x="471.5" y="170.5" width="18" height="18" rx="1.5" stroke="#313131"/>
<rect x="471.5" y="126.5" width="18" height="18" rx="1.5" stroke="#313131"/>
<circle cx="480.5" cy="135.5" r="6" stroke="#313131"/>
<rect x="58.5" y="126.5" width="18" height="18" rx="1.5" stroke="#313131"/>
<circle cx="67.5" cy="135.5" r="6" stroke="#313131"/>
<rect x="58.5" y="171.5" width="18" height="18" rx="1.5" stroke="#313131"/>
<circle cx="67.5" cy="180.5" r="6" stroke="#313131"/>
<circle cx="480.5" cy="180.5" r="6" stroke="#313131"/>
<line x1="490" y1="139.5" x2="493" y2="139.5" stroke="#313131"/>
<line y1="-0.5" x2="3" y2="-0.5" transform="matrix(-1 0 0 1 58 140)" stroke="#313131"/>
<line x1="492.5" y1="140" x2="492.5" y2="145" stroke="#313131"/>
<line y1="-0.5" x2="5" y2="-0.5" transform="matrix(0 1 1 0 56 140)" stroke="#313131"/>
<line x1="492" y1="144.5" x2="499" y2="144.5" stroke="#313131"/>
<line y1="-0.5" x2="7" y2="-0.5" transform="matrix(-1 0 0 1 56 145)" stroke="#313131"/>
<line x1="498.5" y1="145" x2="498.5" y2="172" stroke="#313131"/>
<line x1="49.5" y1="145" x2="49.5" y2="171" stroke="#313131"/>
<line x1="498" y1="171.5" x2="492" y2="171.5" stroke="#313131"/>
<line y1="-0.5" x2="6" y2="-0.5" transform="matrix(1 0 0 -1 50 170)" stroke="#313131"/>
<line x1="492.5" y1="171" x2="492.5" y2="176" stroke="#313131"/>
<line y1="-0.5" x2="5" y2="-0.5" transform="matrix(0 1 1 0 56 171)" stroke="#313131"/>
<line x1="493" y1="175.5" x2="490" y2="175.5" stroke="#313131"/>
<line x1="56" y1="175.5" x2="58" y2="175.5" stroke="#313131"/>
<line x1="192" y1="63.5" x2="219" y2="63.5" stroke="#313131"/>
<line x1="192" y1="63.5" x2="219" y2="63.5" stroke="#313131"/>
<line x1="219" y1="251.5" x2="193" y2="251.5" stroke="#313131"/>
<rect x="385.5" y="83.5" width="19" height="56" stroke="#313131"/>
<rect x="385.5" y="175.5" width="19" height="56" stroke="#313131"/>
<line x1="386" y1="90.5" x2="404" y2="90.5" stroke="#313131"/>
<line x1="386" y1="224.5" x2="404" y2="224.5" stroke="#313131"/>
<line x1="399.384" y1="90.6799" x2="404.384" y2="96.6799" stroke="#313131"/>
<line x1="399.384" y1="175.68" x2="404.384" y2="181.68" stroke="#313131"/>
<line x1="394.396" y1="90.6951" x2="404.396" y2="103.695" stroke="#313131"/>
<line x1="394.396" y1="175.695" x2="404.396" y2="188.695" stroke="#313131"/>
<line x1="388.398" y1="90.697" x2="404.398" y2="111.697" stroke="#313131"/>
<line x1="388.398" y1="175.697" x2="404.398" y2="196.697" stroke="#313131"/>
<line x1="385.398" y1="95.6975" x2="404.398" y2="120.697" stroke="#313131"/>
<line x1="385.398" y1="180.697" x2="404.398" y2="205.697" stroke="#313131"/>
<line x1="385.398" y1="104.697" x2="404.398" y2="129.697" stroke="#313131"/>
<line x1="385.398" y1="189.697" x2="404.398" y2="214.697" stroke="#313131"/>
<line x1="385.398" y1="113.697" x2="404.398" y2="138.697" stroke="#313131"/>
<line x1="385.398" y1="198.697" x2="404.398" y2="223.697" stroke="#313131"/>
<line x1="385.39" y1="124.688" x2="397.39" y2="139.688" stroke="#313131"/>
<line x1="385.397" y1="207.696" x2="398.397" y2="224.696" stroke="#313131"/>
<line x1="385.376" y1="216.671" x2="392.376" y2="224.671" stroke="#313131"/>
<line x1="489.5" y1="142" x2="489.5" y2="172" stroke="#313131"/>
<line x1="471.5" y1="142" x2="471.5" y2="173" stroke="#313131"/>
<line x1="76.5" y1="143" x2="76.5" y2="173" stroke="#313131"/>
<line x1="58.5" y1="142" x2="58.5" y2="172" stroke="#313131"/>
<path d="M45.7427 207V200.602H47.8345C48.5288 200.602 49.0503 200.745 49.3989 201.032C49.7505 201.319 49.9263 201.744 49.9263 202.307C49.9263 202.605 49.8413 202.871 49.6714 203.102C49.5015 203.331 49.27 203.508 48.9771 203.634C49.3228 203.73 49.5952 203.915 49.7944 204.188C49.9966 204.457 50.0977 204.779 50.0977 205.154C50.0977 205.729 49.9116 206.18 49.5396 206.508C49.1675 206.836 48.6416 207 47.9619 207H45.7427ZM46.5864 204.007V206.31H47.9795C48.3721 206.31 48.6812 206.209 48.9067 206.007C49.1353 205.802 49.2495 205.521 49.2495 205.163C49.2495 204.393 48.8306 204.007 47.9927 204.007H46.5864ZM46.5864 203.331H47.8608C48.23 203.331 48.5244 203.238 48.7441 203.054C48.9668 202.869 49.0781 202.619 49.0781 202.302C49.0781 201.951 48.9756 201.696 48.7705 201.538C48.5654 201.376 48.2534 201.296 47.8345 201.296H46.5864V203.331ZM53.1958 207.088C52.5513 207.088 52.0269 206.877 51.6226 206.455C51.2183 206.03 51.0161 205.463 51.0161 204.754V204.605C51.0161 204.133 51.1055 203.713 51.2842 203.344C51.4658 202.972 51.7178 202.682 52.04 202.474C52.3652 202.263 52.7168 202.157 53.0947 202.157C53.7129 202.157 54.1934 202.361 54.5361 202.768C54.8789 203.175 55.0503 203.758 55.0503 204.517V204.855H51.8291C51.8408 205.324 51.9771 205.704 52.2378 205.994C52.5015 206.281 52.8354 206.424 53.2397 206.424C53.5269 206.424 53.77 206.366 53.9692 206.249C54.1685 206.131 54.3428 205.976 54.4922 205.783L54.9888 206.169C54.5903 206.782 53.9927 207.088 53.1958 207.088ZM53.0947 202.825C52.7666 202.825 52.4912 202.945 52.2686 203.186C52.0459 203.423 51.9082 203.757 51.8555 204.188H54.2373V204.126C54.2139 203.713 54.1025 203.394 53.9033 203.168C53.7041 202.939 53.4346 202.825 53.0947 202.825ZM58.9307 207C58.8838 206.906 58.8457 206.739 58.8164 206.499C58.4385 206.892 57.9873 207.088 57.4629 207.088C56.9941 207.088 56.6089 206.956 56.3071 206.692C56.0083 206.426 55.8589 206.089 55.8589 205.682C55.8589 205.187 56.0464 204.803 56.4214 204.53C56.7993 204.255 57.3296 204.117 58.0122 204.117H58.8032V203.744C58.8032 203.459 58.7183 203.234 58.5483 203.067C58.3784 202.897 58.1279 202.812 57.7969 202.812C57.5068 202.812 57.2637 202.885 57.0674 203.032C56.8711 203.178 56.7729 203.355 56.7729 203.563H55.9556C55.9556 203.326 56.0391 203.098 56.2061 202.878C56.376 202.655 56.6045 202.479 56.8916 202.351C57.1816 202.222 57.4995 202.157 57.8452 202.157C58.3931 202.157 58.8223 202.295 59.1328 202.57C59.4434 202.843 59.6045 203.219 59.6162 203.7V205.888C59.6162 206.325 59.6719 206.672 59.7832 206.93V207H58.9307ZM57.5815 206.38C57.8364 206.38 58.0781 206.314 58.3066 206.183C58.5352 206.051 58.7007 205.879 58.8032 205.668V204.693H58.166C57.1699 204.693 56.6719 204.984 56.6719 205.567C56.6719 205.822 56.7568 206.021 56.9268 206.165C57.0967 206.309 57.3149 206.38 57.5815 206.38ZM63.189 202.975C63.0659 202.954 62.9326 202.944 62.7891 202.944C62.2559 202.944 61.894 203.171 61.7036 203.625V207H60.8906V202.245H61.6816L61.6948 202.794C61.9614 202.37 62.3394 202.157 62.8286 202.157C62.9868 202.157 63.1069 202.178 63.189 202.219V202.975ZM64.8237 207H64.0107V202.245H64.8237V207ZM63.9448 200.984C63.9448 200.852 63.9844 200.741 64.0635 200.65C64.1455 200.559 64.2656 200.514 64.4238 200.514C64.582 200.514 64.7021 200.559 64.7842 200.65C64.8662 200.741 64.9072 200.852 64.9072 200.984C64.9072 201.116 64.8662 201.226 64.7842 201.313C64.7021 201.401 64.582 201.445 64.4238 201.445C64.2656 201.445 64.1455 201.401 64.0635 201.313C63.9844 201.226 63.9448 201.116 63.9448 200.984ZM66.8979 202.245L66.9243 202.843C67.2876 202.386 67.7622 202.157 68.3481 202.157C69.353 202.157 69.8599 202.724 69.8687 203.858V207H69.0557V203.854C69.0527 203.511 68.9736 203.257 68.8184 203.093C68.666 202.929 68.4272 202.847 68.1021 202.847C67.8384 202.847 67.6069 202.917 67.4077 203.058C67.2085 203.199 67.0532 203.383 66.9419 203.612V207H66.1289V202.245H66.8979ZM70.9014 204.583C70.9014 203.842 71.0728 203.253 71.4155 202.816C71.7583 202.377 72.2124 202.157 72.7778 202.157C73.3579 202.157 73.8105 202.362 74.1357 202.772L74.1753 202.245H74.918V206.886C74.918 207.501 74.7349 207.986 74.3687 208.34C74.0054 208.695 73.5161 208.872 72.9009 208.872C72.5581 208.872 72.2227 208.799 71.8945 208.652C71.5664 208.506 71.3159 208.305 71.1431 208.05L71.5649 207.562C71.9136 207.993 72.3398 208.208 72.8438 208.208C73.2393 208.208 73.5469 208.097 73.7666 207.875C73.9893 207.652 74.1006 207.338 74.1006 206.934V206.525C73.7754 206.9 73.3315 207.088 72.769 207.088C72.2124 207.088 71.7612 206.864 71.4155 206.416C71.0728 205.967 70.9014 205.356 70.9014 204.583ZM71.7188 204.675C71.7188 205.211 71.8286 205.633 72.0483 205.941C72.2681 206.246 72.5757 206.398 72.9712 206.398C73.4839 206.398 73.8604 206.165 74.1006 205.699V203.528C73.8516 203.074 73.478 202.847 72.98 202.847C72.5845 202.847 72.2754 203.001 72.0527 203.309C71.8301 203.616 71.7188 204.072 71.7188 204.675ZM80.9692 207H80.1519V201.582L78.5127 202.184V201.445L80.8418 200.571H80.9692V207Z" fill="#313131"/>
<path d="M54.0894 105.412H52.5864V108H51.7383V101.602H53.8564C54.5771 101.602 55.1309 101.766 55.5176 102.094C55.9072 102.422 56.1021 102.899 56.1021 103.526C56.1021 103.925 55.9937 104.272 55.7769 104.568C55.563 104.864 55.2642 105.085 54.8804 105.231L56.3833 107.947V108H55.478L54.0894 105.412ZM52.5864 104.722H53.8828C54.3018 104.722 54.6343 104.613 54.8804 104.396C55.1294 104.18 55.2539 103.89 55.2539 103.526C55.2539 103.131 55.1353 102.828 54.8979 102.617C54.6636 102.406 54.3237 102.299 53.8784 102.296H52.5864V104.722Z" fill="#313131"/>
<path d="M58.8506 109.887H57.0635L56.6621 111H56.082L57.7109 106.734H58.2031L59.835 111H59.2578L58.8506 109.887ZM57.2334 109.424H58.6836L57.957 107.429L57.2334 109.424ZM61.2148 110.206L61.9531 107.83H62.5332L61.2588 111.489C61.0615 112.017 60.748 112.28 60.3184 112.28L60.2158 112.271L60.0137 112.233V111.794L60.1602 111.806C60.3438 111.806 60.4863 111.769 60.5879 111.694C60.6914 111.62 60.7764 111.484 60.8428 111.287L60.9629 110.965L59.832 107.83H60.4238L61.2148 110.206Z" fill="#313131"/>
<path d="M478.089 108.412H476.586V111H475.738V104.602H477.856C478.577 104.602 479.131 104.766 479.518 105.094C479.907 105.422 480.102 105.899 480.102 106.526C480.102 106.925 479.994 107.272 479.777 107.568C479.563 107.864 479.264 108.085 478.88 108.231L480.383 110.947V111H479.478L478.089 108.412ZM476.586 107.722H477.883C478.302 107.722 478.634 107.613 478.88 107.396C479.129 107.18 479.254 106.89 479.254 106.526C479.254 106.131 479.135 105.828 478.898 105.617C478.664 105.406 478.324 105.299 477.878 105.296H476.586V107.722Z" fill="#313131"/>
<path d="M480.495 114V109.734H481.89C482.353 109.734 482.7 109.83 482.933 110.021C483.167 110.213 483.284 110.496 483.284 110.871C483.284 111.07 483.228 111.247 483.114 111.401C483.001 111.554 482.847 111.672 482.651 111.756C482.882 111.82 483.063 111.943 483.196 112.125C483.331 112.305 483.398 112.52 483.398 112.77C483.398 113.152 483.274 113.453 483.026 113.672C482.778 113.891 482.428 114 481.975 114H480.495ZM481.058 112.005V113.54H481.986C482.248 113.54 482.454 113.473 482.604 113.338C482.757 113.201 482.833 113.014 482.833 112.775C482.833 112.262 482.554 112.005 481.995 112.005H481.058ZM481.058 111.554H481.907C482.153 111.554 482.35 111.492 482.496 111.369C482.645 111.246 482.719 111.079 482.719 110.868C482.719 110.634 482.65 110.464 482.514 110.358C482.377 110.251 482.169 110.197 481.89 110.197H481.058V111.554ZM485.186 113.206L485.924 110.83H486.504L485.229 114.489C485.032 115.017 484.719 115.28 484.289 115.28L484.187 115.271L483.984 115.233V114.794L484.131 114.806C484.314 114.806 484.457 114.769 484.559 114.694C484.662 114.62 484.747 114.484 484.813 114.287L484.934 113.965L483.803 110.83H484.395L485.186 113.206Z" fill="#313131"/>
<path d="M445.089 188.412H443.586V191H442.738V184.602H444.856C445.577 184.602 446.131 184.766 446.518 185.094C446.907 185.422 447.102 185.899 447.102 186.526C447.102 186.925 446.994 187.272 446.777 187.568C446.563 187.864 446.264 188.085 445.88 188.231L447.383 190.947V191H446.478L445.089 188.412ZM443.586 187.722H444.883C445.302 187.722 445.634 187.613 445.88 187.396C446.129 187.18 446.254 186.89 446.254 186.526C446.254 186.131 446.135 185.828 445.898 185.617C445.664 185.406 445.324 185.299 444.878 185.296H443.586V187.722Z" fill="#313131"/>
<path d="M447.495 194V189.734H448.89C449.353 189.734 449.7 189.83 449.933 190.021C450.167 190.213 450.284 190.496 450.284 190.871C450.284 191.07 450.228 191.247 450.114 191.401C450.001 191.554 449.847 191.672 449.651 191.756C449.882 191.82 450.063 191.943 450.196 192.125C450.331 192.305 450.398 192.52 450.398 192.77C450.398 193.152 450.274 193.453 450.026 193.672C449.778 193.891 449.428 194 448.975 194H447.495ZM448.058 192.005V193.54H448.986C449.248 193.54 449.454 193.473 449.604 193.338C449.757 193.201 449.833 193.014 449.833 192.775C449.833 192.262 449.554 192.005 448.995 192.005H448.058ZM448.058 191.554H448.907C449.153 191.554 449.35 191.492 449.496 191.369C449.645 191.246 449.719 191.079 449.719 190.868C449.719 190.634 449.65 190.464 449.514 190.358C449.377 190.251 449.169 190.197 448.89 190.197H448.058V191.554ZM451.658 193.558H453.513V194H450.996V193.602L452.745 191.278H451.022V190.83H453.425V191.214L451.658 193.558Z" fill="#313131"/>
<path d="M30.0894 191.412H28.5864V194H27.7383V187.602H29.8564C30.5771 187.602 31.1309 187.766 31.5176 188.094C31.9072 188.422 32.1021 188.899 32.1021 189.526C32.1021 189.925 31.9937 190.272 31.7769 190.568C31.563 190.864 31.2642 191.085 30.8804 191.231L32.3833 193.947V194H31.478L30.0894 191.412ZM28.5864 190.722H29.8828C30.3018 190.722 30.6343 190.613 30.8804 190.396C31.1294 190.18 31.2539 189.89 31.2539 189.526C31.2539 189.131 31.1353 188.828 30.8979 188.617C30.6636 188.406 30.3237 188.299 29.8784 188.296H28.5864V190.722Z" fill="#313131"/>
<path d="M34.8506 195.887H33.0635L32.6621 197H32.082L33.7109 192.734H34.2031L35.835 197H35.2578L34.8506 195.887ZM33.2334 195.424H34.6836L33.957 193.429L33.2334 195.424ZM36.8691 196.558H38.7236V197H36.207V196.602L37.9561 194.278H36.2334V193.83H38.6357V194.214L36.8691 196.558Z" fill="#313131"/>
<path d="M197.467 274.161C197.25 274.471 196.947 274.704 196.557 274.859C196.17 275.012 195.719 275.088 195.204 275.088C194.682 275.088 194.219 274.966 193.815 274.723C193.411 274.477 193.097 274.128 192.875 273.677C192.655 273.226 192.542 272.703 192.536 272.108V271.55C192.536 270.586 192.76 269.839 193.208 269.309C193.66 268.779 194.292 268.514 195.107 268.514C195.775 268.514 196.312 268.685 196.72 269.028C197.127 269.368 197.376 269.851 197.467 270.478H196.623C196.465 269.631 195.961 269.208 195.111 269.208C194.546 269.208 194.117 269.407 193.824 269.806C193.534 270.201 193.387 270.775 193.384 271.528V272.051C193.384 272.769 193.548 273.34 193.876 273.765C194.205 274.187 194.648 274.398 195.208 274.398C195.524 274.398 195.801 274.363 196.039 274.292C196.276 274.222 196.472 274.104 196.627 273.937V272.5H195.146V271.814H197.467V274.161ZM200.723 275.088C200.079 275.088 199.554 274.877 199.15 274.455C198.746 274.03 198.543 273.463 198.543 272.754V272.605C198.543 272.133 198.633 271.713 198.812 271.344C198.993 270.972 199.245 270.682 199.567 270.474C199.893 270.263 200.244 270.157 200.622 270.157C201.24 270.157 201.721 270.361 202.063 270.768C202.406 271.175 202.578 271.758 202.578 272.517V272.855H199.356C199.368 273.324 199.504 273.704 199.765 273.994C200.029 274.281 200.363 274.424 200.767 274.424C201.054 274.424 201.297 274.366 201.497 274.249C201.696 274.131 201.87 273.976 202.02 273.783L202.516 274.169C202.118 274.782 201.52 275.088 200.723 275.088ZM200.622 270.825C200.294 270.825 200.019 270.945 199.796 271.186C199.573 271.423 199.436 271.757 199.383 272.188H201.765V272.126C201.741 271.713 201.63 271.394 201.431 271.168C201.231 270.939 200.962 270.825 200.622 270.825ZM206.458 275C206.411 274.906 206.373 274.739 206.344 274.499C205.966 274.892 205.515 275.088 204.99 275.088C204.521 275.088 204.136 274.956 203.834 274.692C203.536 274.426 203.386 274.089 203.386 273.682C203.386 273.187 203.574 272.803 203.949 272.53C204.327 272.255 204.857 272.117 205.54 272.117H206.331V271.744C206.331 271.459 206.246 271.234 206.076 271.067C205.906 270.897 205.655 270.812 205.324 270.812C205.034 270.812 204.791 270.885 204.595 271.032C204.398 271.178 204.3 271.355 204.3 271.563H203.483C203.483 271.326 203.566 271.098 203.733 270.878C203.903 270.655 204.132 270.479 204.419 270.351C204.709 270.222 205.027 270.157 205.373 270.157C205.92 270.157 206.35 270.295 206.66 270.57C206.971 270.843 207.132 271.219 207.144 271.7V273.888C207.144 274.325 207.199 274.672 207.311 274.93V275H206.458ZM205.109 274.38C205.364 274.38 205.605 274.314 205.834 274.183C206.062 274.051 206.228 273.879 206.331 273.668V272.693H205.693C204.697 272.693 204.199 272.984 204.199 273.567C204.199 273.822 204.284 274.021 204.454 274.165C204.624 274.309 204.842 274.38 205.109 274.38ZM210.716 270.975C210.593 270.954 210.46 270.944 210.316 270.944C209.783 270.944 209.421 271.171 209.231 271.625V275H208.418V270.245H209.209L209.222 270.794C209.489 270.37 209.867 270.157 210.356 270.157C210.514 270.157 210.634 270.178 210.716 270.219V270.975ZM216.289 275H215.471V269.582L213.832 270.184V269.445L216.161 268.571H216.289V275Z" fill="#313131"/>
<path d="M385.467 245.161C385.25 245.471 384.947 245.704 384.557 245.859C384.17 246.012 383.719 246.088 383.204 246.088C382.682 246.088 382.219 245.966 381.815 245.723C381.411 245.477 381.097 245.128 380.875 244.677C380.655 244.226 380.542 243.703 380.536 243.108V242.55C380.536 241.586 380.76 240.839 381.208 240.309C381.66 239.779 382.292 239.514 383.107 239.514C383.775 239.514 384.312 239.685 384.72 240.028C385.127 240.368 385.376 240.851 385.467 241.478H384.623C384.465 240.631 383.961 240.208 383.111 240.208C382.546 240.208 382.117 240.407 381.824 240.806C381.534 241.201 381.387 241.775 381.384 242.528V243.051C381.384 243.769 381.548 244.34 381.876 244.765C382.205 245.187 382.648 245.398 383.208 245.398C383.524 245.398 383.801 245.363 384.039 245.292C384.276 245.222 384.472 245.104 384.627 244.937V243.5H383.146V242.814H385.467V245.161ZM388.723 246.088C388.079 246.088 387.554 245.877 387.15 245.455C386.746 245.03 386.543 244.463 386.543 243.754V243.605C386.543 243.133 386.633 242.713 386.812 242.344C386.993 241.972 387.245 241.682 387.567 241.474C387.893 241.263 388.244 241.157 388.622 241.157C389.24 241.157 389.721 241.361 390.063 241.768C390.406 242.175 390.578 242.758 390.578 243.517V243.855H387.356C387.368 244.324 387.504 244.704 387.765 244.994C388.029 245.281 388.363 245.424 388.767 245.424C389.054 245.424 389.297 245.366 389.497 245.249C389.696 245.131 389.87 244.976 390.02 244.783L390.516 245.169C390.118 245.782 389.52 246.088 388.723 246.088ZM388.622 241.825C388.294 241.825 388.019 241.945 387.796 242.186C387.573 242.423 387.436 242.757 387.383 243.188H389.765V243.126C389.741 242.713 389.63 242.394 389.431 242.168C389.231 241.939 388.962 241.825 388.622 241.825ZM394.458 246C394.411 245.906 394.373 245.739 394.344 245.499C393.966 245.892 393.515 246.088 392.99 246.088C392.521 246.088 392.136 245.956 391.834 245.692C391.536 245.426 391.386 245.089 391.386 244.682C391.386 244.187 391.574 243.803 391.949 243.53C392.327 243.255 392.857 243.117 393.54 243.117H394.331V242.744C394.331 242.459 394.246 242.234 394.076 242.067C393.906 241.897 393.655 241.812 393.324 241.812C393.034 241.812 392.791 241.885 392.595 242.032C392.398 242.178 392.3 242.355 392.3 242.563H391.483C391.483 242.326 391.566 242.098 391.733 241.878C391.903 241.655 392.132 241.479 392.419 241.351C392.709 241.222 393.027 241.157 393.373 241.157C393.92 241.157 394.35 241.295 394.66 241.57C394.971 241.843 395.132 242.219 395.144 242.7V244.888C395.144 245.325 395.199 245.672 395.311 245.93V246H394.458ZM393.109 245.38C393.364 245.38 393.605 245.314 393.834 245.183C394.062 245.051 394.228 244.879 394.331 244.668V243.693H393.693C392.697 243.693 392.199 243.984 392.199 244.567C392.199 244.822 392.284 245.021 392.454 245.165C392.624 245.309 392.842 245.38 393.109 245.38ZM398.716 241.975C398.593 241.954 398.46 241.944 398.316 241.944C397.783 241.944 397.421 242.171 397.231 242.625V246H396.418V241.245H397.209L397.222 241.794C397.489 241.37 397.867 241.157 398.356 241.157C398.514 241.157 398.634 241.178 398.716 241.219V241.975ZM405.809 246H401.617V245.416L403.832 242.955C404.16 242.583 404.385 242.281 404.508 242.049C404.634 241.815 404.697 241.573 404.697 241.324C404.697 240.99 404.596 240.716 404.394 240.502C404.192 240.289 403.922 240.182 403.585 240.182C403.181 240.182 402.866 240.297 402.641 240.529C402.418 240.757 402.307 241.077 402.307 241.487H401.494C401.494 240.898 401.683 240.422 402.061 240.059C402.441 239.695 402.95 239.514 403.585 239.514C404.18 239.514 404.65 239.67 404.996 239.984C405.342 240.294 405.515 240.709 405.515 241.228C405.515 241.857 405.113 242.607 404.311 243.478L402.597 245.336H405.809V246Z" fill="#313131"/>
<path d="M458.743 205V198.602H460.834C461.529 198.602 462.05 198.745 462.399 199.032C462.75 199.319 462.926 199.744 462.926 200.307C462.926 200.605 462.841 200.871 462.671 201.102C462.501 201.331 462.27 201.508 461.977 201.634C462.323 201.73 462.595 201.915 462.794 202.188C462.997 202.457 463.098 202.779 463.098 203.154C463.098 203.729 462.912 204.18 462.54 204.508C462.167 204.836 461.642 205 460.962 205H458.743ZM459.586 202.007V204.31H460.979C461.372 204.31 461.681 204.209 461.907 204.007C462.135 203.802 462.25 203.521 462.25 203.163C462.25 202.393 461.831 202.007 460.993 202.007H459.586ZM459.586 201.331H460.861C461.23 201.331 461.524 201.238 461.744 201.054C461.967 200.869 462.078 200.619 462.078 200.302C462.078 199.951 461.976 199.696 461.771 199.538C461.565 199.376 461.253 199.296 460.834 199.296H459.586V201.331ZM466.196 205.088C465.551 205.088 465.027 204.877 464.623 204.455C464.218 204.03 464.016 203.463 464.016 202.754V202.605C464.016 202.133 464.105 201.713 464.284 201.344C464.466 200.972 464.718 200.682 465.04 200.474C465.365 200.263 465.717 200.157 466.095 200.157C466.713 200.157 467.193 200.361 467.536 200.768C467.879 201.175 468.05 201.758 468.05 202.517V202.855H464.829C464.841 203.324 464.977 203.704 465.238 203.994C465.501 204.281 465.835 204.424 466.24 204.424C466.527 204.424 466.77 204.366 466.969 204.249C467.168 204.131 467.343 203.976 467.492 203.783L467.989 204.169C467.59 204.782 466.993 205.088 466.196 205.088ZM466.095 200.825C465.767 200.825 465.491 200.945 465.269 201.186C465.046 201.423 464.908 201.757 464.855 202.188H467.237V202.126C467.214 201.713 467.103 201.394 466.903 201.168C466.704 200.939 466.435 200.825 466.095 200.825ZM471.931 205C471.884 204.906 471.846 204.739 471.816 204.499C471.438 204.892 470.987 205.088 470.463 205.088C469.994 205.088 469.609 204.956 469.307 204.692C469.008 204.426 468.859 204.089 468.859 203.682C468.859 203.187 469.046 202.803 469.421 202.53C469.799 202.255 470.33 202.117 471.012 202.117H471.803V201.744C471.803 201.459 471.718 201.234 471.548 201.067C471.378 200.897 471.128 200.812 470.797 200.812C470.507 200.812 470.264 200.885 470.067 201.032C469.871 201.178 469.773 201.355 469.773 201.563H468.956C468.956 201.326 469.039 201.098 469.206 200.878C469.376 200.655 469.604 200.479 469.892 200.351C470.182 200.222 470.5 200.157 470.845 200.157C471.393 200.157 471.822 200.295 472.133 200.57C472.443 200.843 472.604 201.219 472.616 201.7V203.888C472.616 204.325 472.672 204.672 472.783 204.93V205H471.931ZM470.582 204.38C470.836 204.38 471.078 204.314 471.307 204.183C471.535 204.051 471.701 203.879 471.803 203.668V202.693H471.166C470.17 202.693 469.672 202.984 469.672 203.567C469.672 203.822 469.757 204.021 469.927 204.165C470.097 204.309 470.315 204.38 470.582 204.38ZM476.189 200.975C476.066 200.954 475.933 200.944 475.789 200.944C475.256 200.944 474.894 201.171 474.704 201.625V205H473.891V200.245H474.682L474.695 200.794C474.961 200.37 475.339 200.157 475.829 200.157C475.987 200.157 476.107 200.178 476.189 200.219V200.975ZM477.824 205H477.011V200.245H477.824V205ZM476.945 198.984C476.945 198.852 476.984 198.741 477.063 198.65C477.146 198.559 477.266 198.514 477.424 198.514C477.582 198.514 477.702 198.559 477.784 198.65C477.866 198.741 477.907 198.852 477.907 198.984C477.907 199.116 477.866 199.226 477.784 199.313C477.702 199.401 477.582 199.445 477.424 199.445C477.266 199.445 477.146 199.401 477.063 199.313C476.984 199.226 476.945 199.116 476.945 198.984ZM479.898 200.245L479.924 200.843C480.288 200.386 480.762 200.157 481.348 200.157C482.353 200.157 482.86 200.724 482.869 201.858V205H482.056V201.854C482.053 201.511 481.974 201.257 481.818 201.093C481.666 200.929 481.427 200.847 481.102 200.847C480.838 200.847 480.607 200.917 480.408 201.058C480.208 201.199 480.053 201.383 479.942 201.612V205H479.129V200.245H479.898ZM483.901 202.583C483.901 201.842 484.073 201.253 484.416 200.816C484.758 200.377 485.212 200.157 485.778 200.157C486.358 200.157 486.811 200.362 487.136 200.772L487.175 200.245H487.918V204.886C487.918 205.501 487.735 205.986 487.369 206.34C487.005 206.695 486.516 206.872 485.901 206.872C485.558 206.872 485.223 206.799 484.895 206.652C484.566 206.506 484.316 206.305 484.143 206.05L484.565 205.562C484.914 205.993 485.34 206.208 485.844 206.208C486.239 206.208 486.547 206.097 486.767 205.875C486.989 205.652 487.101 205.338 487.101 204.934V204.525C486.775 204.9 486.332 205.088 485.769 205.088C485.212 205.088 484.761 204.864 484.416 204.416C484.073 203.967 483.901 203.356 483.901 202.583ZM484.719 202.675C484.719 203.211 484.829 203.633 485.048 203.941C485.268 204.246 485.576 204.398 485.971 204.398C486.484 204.398 486.86 204.165 487.101 203.699V201.528C486.852 201.074 486.478 200.847 485.98 200.847C485.584 200.847 485.275 201.001 485.053 201.309C484.83 201.616 484.719 202.072 484.719 202.675ZM495.49 205H491.297V204.416L493.512 201.955C493.84 201.583 494.066 201.281 494.189 201.049C494.315 200.815 494.378 200.573 494.378 200.324C494.378 199.99 494.277 199.716 494.075 199.502C493.873 199.289 493.603 199.182 493.266 199.182C492.862 199.182 492.547 199.297 492.321 199.529C492.099 199.757 491.987 200.077 491.987 200.487H491.174C491.174 199.898 491.363 199.422 491.741 199.059C492.122 198.695 492.63 198.514 493.266 198.514C493.861 198.514 494.331 198.67 494.677 198.984C495.022 199.294 495.195 199.709 495.195 200.228C495.195 200.857 494.794 201.607 493.991 202.478L492.277 204.336H495.49V205Z" fill="#313131"/>
<line x1="206" y1="48" x2="206" y2="16" stroke="#FFAF46" stroke-width="2"/>
<path d="M206 53L209.464 43.25H202.536L206 53Z" fill="#FFAF46"/>
<line x1="68" y1="154" x2="68" y2="115" stroke="#FFAF46" stroke-width="2"/>
<path d="M68 159L71.4641 149.25H64.5359L68 159Z" fill="#FFAF46"/>
<line x1="480" y1="153" x2="480" y2="121" stroke="#FFAF46" stroke-width="2"/>
<path d="M480 158L483.464 148.25H476.536L480 158Z" fill="#FFAF46"/>
<line x1="64.3257" y1="163.007" x2="35.6216" y2="185.783" stroke="#FFAF46" stroke-width="2"/>
<path d="M67.7078 159.762L58.2829 163.809L62.4899 168.592L67.7078 159.762Z" fill="#FFAF46"/>
<line x1="476.322" y1="162.01" x2="450.322" y2="182.455" stroke="#FFAF46" stroke-width="2"/>
<path d="M479.708 158.762L470.283 162.809L474.49 167.592L479.708 158.762Z" fill="#FFAF46"/>
<line x1="395" y1="75" x2="395" y2="46" stroke="#FFAF46" stroke-width="2"/>
<path d="M395 80L398.464 70.25H391.536L395 80Z" fill="#FFAF46"/>
<line x1="211.669" y1="49.2409" x2="234.053" y2="24.6482" stroke="#FFAF46" stroke-width="2"/>
<path d="M207.968 52.597L212.097 43.0819L217.238 47.9443L207.968 52.597Z" fill="#FFAF46"/>
<line x1="392.032" y1="84.5649" x2="368.635" y2="103.773" stroke="#FFAF46" stroke-width="2"/>
<path d="M395.763 81.2492L390.317 89.8417L386.504 85.4623L395.763 81.2492Z" fill="#FFAF46"/>
<path d="M68.7241 164.33H71.4048L72.0068 166H72.877L70.4336 159.602H69.6953L67.2476 166H68.1133L68.7241 164.33ZM71.1499 163.636H68.9746L70.0645 160.643L71.1499 163.636Z" fill="#313131"/>
<path d="M482.743 166V159.602H484.834C485.529 159.602 486.05 159.745 486.399 160.032C486.75 160.319 486.926 160.744 486.926 161.307C486.926 161.605 486.841 161.871 486.671 162.102C486.501 162.331 486.27 162.508 485.977 162.634C486.323 162.73 486.595 162.915 486.794 163.188C486.997 163.457 487.098 163.779 487.098 164.154C487.098 164.729 486.912 165.18 486.54 165.508C486.167 165.836 485.642 166 484.962 166H482.743ZM483.586 163.007V165.31H484.979C485.372 165.31 485.681 165.209 485.907 165.007C486.135 164.802 486.25 164.521 486.25 164.163C486.25 163.393 485.831 163.007 484.993 163.007H483.586ZM483.586 162.331H484.861C485.23 162.331 485.524 162.238 485.744 162.054C485.967 161.869 486.078 161.619 486.078 161.302C486.078 160.951 485.976 160.696 485.771 160.538C485.565 160.376 485.253 160.296 484.834 160.296H483.586V162.331Z" fill="#313131"/>
<path d="M205.089 6.41162H203.586V9H202.738V2.60156H204.856C205.577 2.60156 206.131 2.76562 206.518 3.09375C206.907 3.42188 207.102 3.89941 207.102 4.52637C207.102 4.9248 206.994 5.27197 206.777 5.56787C206.563 5.86377 206.264 6.08496 205.88 6.23145L207.383 8.94727V9H206.478L205.089 6.41162ZM203.586 5.72168H204.883C205.302 5.72168 205.634 5.61328 205.88 5.39648C206.129 5.17969 206.254 4.88965 206.254 4.52637C206.254 4.13086 206.135 3.82764 205.898 3.6167C205.664 3.40576 205.324 3.29883 204.878 3.2959H203.586V5.72168Z" fill="#313131"/>
<path d="M210.645 11.4404C210.5 11.6475 210.298 11.8027 210.038 11.9062C209.78 12.0078 209.479 12.0586 209.136 12.0586C208.788 12.0586 208.479 11.9775 208.21 11.8154C207.94 11.6514 207.731 11.4189 207.583 11.1182C207.437 10.8174 207.361 10.4688 207.357 10.0723V9.7002C207.357 9.05762 207.507 8.55957 207.806 8.20605C208.106 7.85254 208.528 7.67578 209.071 7.67578C209.517 7.67578 209.875 7.79004 210.146 8.01855C210.418 8.24512 210.584 8.56738 210.645 8.98535H210.082C209.977 8.4209 209.641 8.13867 209.074 8.13867C208.697 8.13867 208.411 8.27148 208.216 8.53711C208.022 8.80078 207.925 9.18359 207.923 9.68555V10.0342C207.923 10.5127 208.032 10.8936 208.251 11.1768C208.47 11.458 208.766 11.5986 209.139 11.5986C209.35 11.5986 209.534 11.5752 209.692 11.5283C209.851 11.4814 209.981 11.4023 210.085 11.291V10.333H209.098V9.87598H210.645V11.4404ZM213.226 12H212.681V8.3877L211.588 8.78906V8.29688L213.141 7.71387H213.226V12ZM215.906 11.2061L216.645 8.83008H217.225L215.95 12.4893C215.753 13.0166 215.439 13.2803 215.01 13.2803L214.907 13.2715L214.705 13.2334V12.7939L214.852 12.8057C215.035 12.8057 215.178 12.7686 215.279 12.6943C215.383 12.6201 215.468 12.4844 215.534 12.2871L215.654 11.9648L214.523 8.83008H215.115L215.906 11.2061Z" fill="#313131"/>
<path d="M391.089 33.4116H389.586V36H388.738V29.6016H390.856C391.577 29.6016 392.131 29.7656 392.518 30.0938C392.907 30.4219 393.102 30.8994 393.102 31.5264C393.102 31.9248 392.994 32.272 392.777 32.5679C392.563 32.8638 392.264 33.085 391.88 33.2314L393.383 35.9473V36H392.478L391.089 33.4116ZM389.586 32.7217H390.883C391.302 32.7217 391.634 32.6133 391.88 32.3965C392.129 32.1797 392.254 31.8896 392.254 31.5264C392.254 31.1309 392.135 30.8276 391.898 30.6167C391.664 30.4058 391.324 30.2988 390.878 30.2959H389.586V32.7217Z" fill="#313131"/>
<path d="M396.645 38.4404C396.5 38.6475 396.298 38.8027 396.038 38.9062C395.78 39.0078 395.479 39.0586 395.136 39.0586C394.788 39.0586 394.479 38.9775 394.21 38.8154C393.94 38.6514 393.731 38.4189 393.583 38.1182C393.437 37.8174 393.361 37.4688 393.357 37.0723V36.7002C393.357 36.0576 393.507 35.5596 393.806 35.2061C394.106 34.8525 394.528 34.6758 395.071 34.6758C395.517 34.6758 395.875 34.79 396.146 35.0186C396.418 35.2451 396.584 35.5674 396.645 35.9854H396.082C395.977 35.4209 395.641 35.1387 395.074 35.1387C394.697 35.1387 394.411 35.2715 394.216 35.5371C394.022 35.8008 393.925 36.1836 393.923 36.6855V37.0342C393.923 37.5127 394.032 37.8936 394.251 38.1768C394.47 38.458 394.766 38.5986 395.139 38.5986C395.35 38.5986 395.534 38.5752 395.692 38.5283C395.851 38.4814 395.981 38.4023 396.085 38.291V37.333H395.098V36.876H396.645V38.4404ZM400.239 39H397.444V38.6104L398.921 36.9697C399.14 36.7217 399.29 36.5205 399.372 36.3662C399.456 36.21 399.498 36.0488 399.498 35.8828C399.498 35.6602 399.431 35.4775 399.296 35.335C399.161 35.1924 398.981 35.1211 398.757 35.1211C398.487 35.1211 398.277 35.1982 398.127 35.3525C397.979 35.5049 397.904 35.7178 397.904 35.9912H397.362C397.362 35.5986 397.488 35.2812 397.74 35.0391C397.994 34.7969 398.333 34.6758 398.757 34.6758C399.153 34.6758 399.467 34.7803 399.697 34.9893C399.928 35.1963 400.043 35.4727 400.043 35.8184C400.043 36.2383 399.775 36.7383 399.24 37.3184L398.098 38.5576H400.239V39ZM401.906 38.2061L402.645 35.8301H403.225L401.95 39.4893C401.753 40.0166 401.439 40.2803 401.01 40.2803L400.907 40.2715L400.705 40.2334V39.7939L400.852 39.8057C401.035 39.8057 401.178 39.7686 401.279 39.6943C401.383 39.6201 401.468 39.4844 401.534 39.2871L401.654 38.9648L400.523 35.8301H401.115L401.906 38.2061Z" fill="#313131"/>
<path d="M239.089 19.4116H237.586V22H236.738V15.6016H238.856C239.577 15.6016 240.131 15.7656 240.518 16.0938C240.907 16.4219 241.102 16.8994 241.102 17.5264C241.102 17.9248 240.994 18.272 240.777 18.5679C240.563 18.8638 240.264 19.085 239.88 19.2314L241.383 21.9473V22H240.478L239.089 19.4116ZM237.586 18.7217H238.883C239.302 18.7217 239.634 18.6133 239.88 18.3965C240.129 18.1797 240.254 17.8896 240.254 17.5264C240.254 17.1309 240.135 16.8276 239.898 16.6167C239.664 16.4058 239.324 16.2988 238.878 16.2959H237.586V18.7217Z" fill="#313131"/>
<path d="M244.645 24.4404C244.5 24.6475 244.298 24.8027 244.038 24.9062C243.78 25.0078 243.479 25.0586 243.136 25.0586C242.788 25.0586 242.479 24.9775 242.21 24.8154C241.94 24.6514 241.731 24.4189 241.583 24.1182C241.437 23.8174 241.361 23.4688 241.357 23.0723V22.7002C241.357 22.0576 241.507 21.5596 241.806 21.2061C242.106 20.8525 242.528 20.6758 243.071 20.6758C243.517 20.6758 243.875 20.79 244.146 21.0186C244.418 21.2451 244.584 21.5674 244.645 21.9854H244.082C243.977 21.4209 243.641 21.1387 243.074 21.1387C242.697 21.1387 242.411 21.2715 242.216 21.5371C242.022 21.8008 241.925 22.1836 241.923 22.6855V23.0342C241.923 23.5127 242.032 23.8936 242.251 24.1768C242.47 24.458 242.766 24.5986 243.139 24.5986C243.35 24.5986 243.534 24.5752 243.692 24.5283C243.851 24.4814 243.981 24.4023 244.085 24.291V23.333H243.098V22.876H244.645V24.4404ZM247.226 25H246.681V21.3877L245.588 21.7891V21.2969L247.141 20.7139H247.226V25ZM249.379 24.5576H251.233V25H248.717V24.6016L250.466 22.2783H248.743V21.8301H251.146V22.2139L249.379 24.5576Z" fill="#313131"/>
<path d="M68.2828 90.7172C68.1266 90.5609 67.8734 90.5609 67.7172 90.7172L65.1716 93.2627C65.0154 93.419 65.0154 93.6722 65.1716 93.8284C65.3278 93.9846 65.581 93.9846 65.7373 93.8284L68 91.5657L70.2627 93.8284C70.419 93.9846 70.6722 93.9846 70.8284 93.8284C70.9846 93.6722 70.9846 93.419 70.8284 93.2627L68.2828 90.7172ZM68.4 110V91H67.6V110H68.4Z" fill="#313131"/>
<path d="M8.60402 206.467C8.57452 206.686 8.72808 206.887 8.94702 206.917L12.5148 207.398C12.7337 207.427 12.9351 207.274 12.9646 207.055C12.9941 206.836 12.8405 206.634 12.6216 206.605L9.45028 206.177L9.87764 203.006C9.90714 202.787 9.75358 202.586 9.53464 202.556C9.31571 202.527 9.11431 202.68 9.08481 202.899L8.60402 206.467ZM23.8668 194.682L8.7579 206.202L9.24297 206.839L24.3519 195.318L23.8668 194.682Z" fill="#313131"/>
<path d="M68.4121 82.6768L69.6426 78.7168H70.6094L68.4854 84.8154C68.1566 85.6943 67.6341 86.1338 66.918 86.1338L66.7471 86.1191L66.4102 86.0557V85.3232L66.6543 85.3428C66.9603 85.3428 67.1979 85.2809 67.3672 85.1572C67.5397 85.0335 67.6813 84.8073 67.792 84.4785L67.9922 83.9414L66.1074 78.7168H67.0938L68.4121 82.6768Z" fill="#313131"/>
<path d="M1.5332 213.263H4.62402V214H0.429688V213.336L3.34473 209.464H0.473633V208.717H4.47754V209.356L1.5332 213.263Z" fill="#313131"/>
<path d="M357.089 106.412H355.586V109H354.738V102.602H356.856C357.577 102.602 358.131 102.766 358.518 103.094C358.907 103.422 359.102 103.899 359.102 104.526C359.102 104.925 358.994 105.272 358.777 105.568C358.563 105.864 358.264 106.085 357.88 106.231L359.383 108.947V109H358.478L357.089 106.412ZM355.586 105.722H356.883C357.302 105.722 357.634 105.613 357.88 105.396C358.129 105.18 358.254 104.89 358.254 104.526C358.254 104.131 358.135 103.828 357.898 103.617C357.664 103.406 357.324 103.299 356.878 103.296H355.586V105.722Z" fill="#313131"/>
<path d="M362.645 111.44C362.5 111.647 362.298 111.803 362.038 111.906C361.78 112.008 361.479 112.059 361.136 112.059C360.788 112.059 360.479 111.978 360.21 111.815C359.94 111.651 359.731 111.419 359.583 111.118C359.437 110.817 359.361 110.469 359.357 110.072V109.7C359.357 109.058 359.507 108.56 359.806 108.206C360.106 107.853 360.528 107.676 361.071 107.676C361.517 107.676 361.875 107.79 362.146 108.019C362.418 108.245 362.584 108.567 362.645 108.985H362.082C361.977 108.421 361.641 108.139 361.074 108.139C360.697 108.139 360.411 108.271 360.216 108.537C360.022 108.801 359.925 109.184 359.923 109.686V110.034C359.923 110.513 360.032 110.894 360.251 111.177C360.47 111.458 360.766 111.599 361.139 111.599C361.35 111.599 361.534 111.575 361.692 111.528C361.851 111.481 361.981 111.402 362.085 111.291V110.333H361.098V109.876H362.645V111.44ZM366.239 112H363.444V111.61L364.921 109.97C365.14 109.722 365.29 109.521 365.372 109.366C365.456 109.21 365.498 109.049 365.498 108.883C365.498 108.66 365.431 108.478 365.296 108.335C365.161 108.192 364.981 108.121 364.757 108.121C364.487 108.121 364.277 108.198 364.127 108.353C363.979 108.505 363.904 108.718 363.904 108.991H363.362C363.362 108.599 363.488 108.281 363.74 108.039C363.994 107.797 364.333 107.676 364.757 107.676C365.153 107.676 365.467 107.78 365.697 107.989C365.928 108.196 366.043 108.473 366.043 108.818C366.043 109.238 365.775 109.738 365.24 110.318L364.098 111.558H366.239V112ZM367.379 111.558H369.233V112H366.717V111.602L368.466 109.278H366.743V108.83H369.146V109.214L367.379 111.558Z" fill="#313131"/>
</svg>
