<?xml version="1.0" standalone="no"?>
<!DOCTYPE svg PUBLIC "-//W3C//DTD SVG 20010904//EN"
 "http://www.w3.org/TR/2001/REC-SVG-20010904/DTD/svg10.dtd">
<svg version="1.0" xmlns="http://www.w3.org/2000/svg"
 width="1198.000000pt" height="1198.000000pt" viewBox="0 0 1198.000000 1198.000000"
 preserveAspectRatio="xMidYMid meet">
<metadata>
Created by potrace 1.11, written by Peter Selinger 2001-2013
</metadata>
<g transform="translate(0.000000,1198.000000) scale(0.100000,-0.100000)"
fill="#000000" stroke="none">
<path d="M4067 10553 c-2 -1 -52 -5 -112 -8 -61 -3 -123 -8 -140 -10 -16 -3
-52 -7 -80 -9 -27 -3 -61 -7 -75 -10 -14 -2 -43 -7 -65 -10 -22 -3 -56 -8 -75
-12 -34 -5 -42 -7 -105 -19 -16 -3 -48 -11 -70 -17 -52 -13 -61 -16 -118 -29
-26 -6 -45 -15 -42 -20 3 -4 -6 -11 -20 -15 -14 -3 -25 -9 -25 -13 0 -9 -18
-111 -25 -141 -3 -14 -7 -45 -10 -70 -3 -25 -7 -54 -9 -66 -2 -12 -7 -45 -11
-75 -8 -74 -13 -117 -19 -164 -5 -39 -8 -71 -23 -260 -9 -116 -10 -787 -1
-885 4 -41 10 -107 13 -146 l6 -70 -38 4 c-82 8 -908 2 -908 -8 0 0 -31 -2
-68 -3 -78 -3 -74 -6 -137 103 -65 112 -176 276 -242 357 -67 82 -156 163
-172 157 -6 -2 -22 -26 -36 -52 -14 -26 -37 -66 -52 -88 -16 -23 -28 -46 -28
-52 0 -5 -7 -15 -15 -22 -21 -17 -19 -43 5 -60 12 -8 40 -40 64 -70 54 -69
196 -278 196 -289 0 -5 7 -14 15 -21 9 -7 13 -15 10 -18 -3 -3 1 -12 9 -21 7
-9 36 -56 65 -106 28 -49 56 -97 61 -105 5 -8 17 -31 27 -50 9 -19 19 -37 22
-40 4 -3 31 -54 61 -115 30 -60 58 -112 61 -115 6 -5 279 -556 349 -705 24
-49 58 -120 76 -158 19 -37 34 -69 34 -72 0 -5 25 -60 85 -190 67 -145 85
-186 85 -190 0 -2 18 -43 40 -90 22 -47 40 -89 40 -92 0 -3 12 -28 26 -57 14
-28 26 -53 27 -56 0 -5 9 -26 53 -125 9 -22 18 -42 19 -45 1 -3 9 -22 18 -44
9 -21 17 -40 17 -42 0 -2 13 -33 30 -69 17 -36 30 -67 30 -69 0 -2 10 -25 22
-52 12 -27 23 -52 24 -56 1 -5 3 -10 4 -13 1 -3 3 -8 5 -12 1 -5 9 -24 17 -43
15 -34 29 -70 33 -80 1 -3 9 -23 19 -45 9 -22 26 -62 38 -90 11 -27 29 -69 39
-92 11 -24 19 -49 19 -56 0 -7 4 -17 8 -22 5 -6 32 -71 61 -145 29 -74 62
-154 72 -177 10 -24 19 -47 19 -53 0 -6 4 -18 10 -28 11 -21 60 -141 65 -162
2 -8 10 -31 18 -50 22 -53 30 -75 32 -80 1 -3 4 -12 8 -20 3 -8 17 -49 32 -90
15 -41 34 -88 41 -105 14 -31 84 -222 88 -240 1 -5 8 -20 14 -32 7 -13 10 -23
7 -23 -3 0 -1 -9 6 -21 6 -12 24 -58 39 -103 16 -44 45 -126 65 -181 20 -55
42 -118 50 -140 7 -22 52 -152 99 -290 84 -243 91 -263 100 -304 3 -11 10 -29
16 -41 6 -12 14 -32 16 -45 2 -13 22 -76 43 -142 22 -65 56 -172 76 -238 20
-66 39 -127 41 -135 3 -8 4 -15 3 -15 -1 0 6 -17 14 -38 9 -20 14 -37 12 -37
-3 0 0 -12 6 -27 6 -16 12 -35 14 -43 2 -8 29 -103 60 -210 30 -107 57 -204
60 -215 2 -11 4 -20 5 -20 1 0 3 -7 5 -15 2 -8 11 -42 20 -74 8 -33 17 -67 19
-75 2 -9 6 -23 9 -31 6 -14 22 -78 32 -125 2 -11 9 -40 15 -65 7 -25 14 -54
16 -65 3 -11 6 -24 8 -30 17 -70 42 -119 78 -149 40 -34 114 -59 154 -52 11 2
80 7 154 11 74 4 158 9 185 11 151 10 287 17 337 18 32 1 58 3 58 6 0 3 28 6
63 6 59 2 234 10 362 18 207 13 386 24 490 30 44 2 99 9 121 15 51 14 115 74
130 122 11 35 11 123 0 235 -7 66 -14 168 -21 299 -2 44 -5 80 -5 80 -3 0 -13
212 -14 302 0 57 -3 103 -6 103 -3 0 -6 33 -7 73 -1 39 -5 173 -9 297 -12 363
-13 1730 -2 1730 7 0 7 4 1 13 -5 6 -8 35 -7 62 3 58 15 478 18 607 0 49 3 88
6 88 3 0 5 53 6 118 1 113 11 374 19 497 2 33 7 116 10 185 3 69 8 150 10 180
2 30 6 98 10 150 4 52 8 124 10 160 4 66 13 190 21 290 4 54 9 113 20 240 3
36 7 97 9 135 2 39 5 70 6 70 0 0 2 18 4 40 4 53 14 158 20 220 9 80 15 136
19 190 2 28 5 50 6 50 1 0 3 18 5 40 2 35 8 94 19 190 2 17 7 59 10 95 4 36 9
76 11 90 2 14 6 45 10 70 3 25 8 56 10 70 2 14 7 48 10 75 7 65 14 115 20 145
3 13 7 42 10 65 4 22 9 54 11 70 6 32 8 44 19 120 4 28 9 58 11 68 2 9 6 25 8
36 2 10 7 36 10 57 4 22 9 47 12 57 3 11 7 29 9 40 3 19 12 62 19 92 2 6 6 27
11 48 8 40 18 50 50 53 64 7 147 14 195 18 53 4 128 11 215 20 22 3 74 8 115
11 41 4 86 8 100 10 14 1 59 6 100 9 41 4 96 9 121 11 43 5 48 2 71 -28 13
-17 32 -49 43 -69 11 -21 23 -38 28 -38 4 0 5 -4 2 -10 -3 -5 -2 -10 3 -10 4
0 17 -17 29 -37 11 -21 51 -92 90 -158 87 -150 113 -195 180 -320 98 -182 354
-701 358 -725 1 -3 18 -40 38 -83 20 -43 37 -80 37 -83 0 -2 13 -32 29 -67 42
-91 70 -153 92 -211 11 -28 27 -64 34 -81 20 -42 166 -408 169 -420 2 -10 40
-113 57 -150 21 -50 165 -443 174 -475 2 -8 36 -107 75 -220 63 -183 75 -218
84 -255 1 -5 7 -20 14 -31 6 -12 9 -24 5 -27 -3 -4 -1 -12 4 -19 6 -7 13 -22
16 -33 3 -11 19 -64 36 -117 100 -314 129 -408 136 -441 2 -9 7 -22 10 -27 3
-5 8 -20 10 -32 4 -22 24 -88 66 -222 11 -33 19 -67 19 -76 0 -9 3 -20 7 -24
4 -3 8 -12 9 -19 1 -7 12 -46 24 -87 13 -41 24 -82 26 -90 7 -43 16 -75 23
-85 5 -5 9 -17 9 -25 1 -16 6 -36 15 -60 4 -13 101 -372 123 -455 4 -16 8 -32
9 -35 6 -19 17 -59 20 -76 2 -10 4 -19 6 -19 1 0 3 -9 5 -20 1 -11 15 -65 29
-120 15 -55 29 -108 31 -117 9 -38 14 -58 49 -193 20 -77 38 -147 40 -156 2
-8 10 -44 19 -80 9 -35 18 -73 20 -84 2 -11 12 -49 21 -85 9 -36 18 -72 20
-80 2 -8 13 -55 25 -105 12 -49 23 -99 25 -110 2 -11 15 -67 29 -124 14 -57
23 -108 20 -112 -3 -5 0 -9 6 -9 6 0 10 -8 9 -17 -1 -10 0 -25 4 -33 8 -22 34
-134 42 -180 7 -45 16 -85 21 -102 3 -9 6 -25 8 -35 3 -10 11 -48 20 -86 9
-37 18 -82 21 -100 3 -17 10 -48 15 -67 5 -19 11 -46 14 -60 3 -14 15 -70 26
-125 12 -55 23 -107 25 -115 2 -8 8 -37 15 -65 19 -89 14 -84 71 -69 28 7 67
16 87 19 20 3 62 12 92 19 63 15 63 16 36 128 -9 35 -18 74 -20 88 -3 14 -14
70 -26 125 -11 55 -22 109 -25 120 -2 11 -4 20 -5 20 -1 0 -4 14 -6 30 -3 17
-7 37 -11 45 -3 8 -6 18 -5 22 1 4 -5 33 -13 65 -8 32 -16 69 -19 83 -3 14 -7
34 -10 45 -2 11 -18 81 -35 156 -17 74 -33 142 -35 150 -3 8 -8 25 -10 39 -3
14 -7 34 -10 45 -2 11 -12 52 -20 90 -9 39 -19 79 -22 90 -3 11 -7 29 -8 40
-2 11 -16 70 -31 130 -14 61 -28 117 -30 127 -2 9 -29 119 -61 245 -31 125
-58 235 -59 243 -1 8 -5 22 -8 30 -3 8 -19 69 -36 135 -25 101 -43 169 -66
255 -9 32 -57 216 -62 235 -2 11 -5 26 -5 33 -1 6 -5 12 -10 12 -5 0 -7 4 -4
8 3 5 -4 37 -14 71 -11 34 -22 73 -24 85 -2 13 -11 48 -20 77 -49 166 -67 231
-71 249 -2 11 -7 25 -10 30 -4 6 -8 20 -11 33 -2 12 -18 69 -34 127 -35 118
-58 198 -64 220 -3 8 -23 76 -46 150 -23 74 -48 158 -56 185 -8 28 -18 57 -21
65 -4 8 -7 18 -8 23 -2 4 -3 8 -4 10 -2 1 -4 11 -6 22 -3 11 -39 124 -80 250
-42 127 -78 235 -79 240 -2 6 -6 19 -10 30 -5 11 -12 31 -16 45 -4 14 -11 34
-16 45 -4 11 -8 25 -9 30 -4 15 -120 342 -166 465 -17 47 -35 96 -39 110 -8
25 -115 301 -127 330 -3 8 -7 17 -8 20 -1 3 -7 19 -14 35 -7 17 -22 54 -33 83
-11 30 -26 66 -34 80 -8 15 -14 31 -14 35 0 4 -9 27 -19 50 -17 38 -84 195
-113 265 -6 15 -11 30 -10 35 1 4 -3 7 -8 7 -6 0 -10 5 -10 11 0 11 -40 104
-98 229 -161 347 -296 614 -449 889 -34 63 -63 117 -63 119 0 3 -6 13 -14 21
-7 9 -24 36 -37 61 -13 25 -34 59 -46 76 -13 17 -23 34 -23 38 0 15 -182 295
-214 329 -19 20 -58 46 -87 57 -29 12 -72 30 -95 41 -24 10 -48 19 -53 19 -6
0 -11 4 -11 8 0 4 -9 8 -19 9 -10 1 -39 10 -63 21 -23 11 -77 31 -118 46 -41
15 -84 31 -95 36 -33 13 -147 52 -159 54 -6 1 -15 4 -21 7 -5 4 -71 25 -145
48 -74 24 -146 46 -160 51 -31 11 -167 51 -189 55 -9 2 -28 8 -43 14 -16 6
-28 8 -28 5 0 -4 -7 -1 -15 6 -8 7 -15 10 -15 7 0 -3 -15 -1 -32 4 -34 10
-251 68 -278 74 -8 2 -71 17 -140 34 -69 17 -136 33 -150 35 -14 3 -26 5 -27
7 -3 2 -4 2 -58 13 -22 5 -47 10 -55 11 -14 2 -153 31 -195 41 -20 5 -29 7
-100 19 -22 3 -58 10 -80 15 -22 5 -56 12 -75 15 -48 8 -140 24 -170 30 -13 3
-40 7 -60 10 -20 3 -45 7 -56 9 -12 2 -45 8 -75 11 -30 4 -65 9 -79 12 -14 2
-43 6 -65 8 -22 2 -40 4 -40 5 0 1 -18 4 -40 6 -77 9 -100 12 -100 14 0 0 -27
3 -60 6 -33 2 -78 7 -100 9 -112 12 -610 27 -618 18z m458 -158 c130 -6 142
-7 245 -19 30 -4 73 -9 95 -11 38 -4 61 -7 150 -20 22 -4 49 -8 60 -9 11 -2
45 -7 75 -11 30 -5 64 -9 75 -11 11 -1 20 -3 20 -4 0 -1 14 -3 30 -5 17 -2 41
-6 55 -9 38 -7 91 -17 130 -22 45 -6 75 -12 75 -14 0 -1 11 -3 25 -5 14 -1 39
-5 55 -9 17 -3 44 -8 60 -11 45 -8 304 -64 350 -76 22 -6 54 -12 70 -14 17 -2
68 -13 115 -25 100 -25 113 -29 141 -35 11 -2 29 -7 39 -10 10 -3 28 -8 39
-10 42 -10 58 -14 151 -40 52 -14 106 -28 120 -31 14 -2 36 -8 50 -13 14 -5
59 -19 100 -31 41 -12 94 -27 117 -35 23 -7 44 -11 47 -7 3 3 6 -1 6 -8 0 -7
3 -11 6 -8 3 4 78 -19 167 -49 89 -30 167 -56 172 -57 6 -2 21 -7 35 -13 14
-6 67 -25 118 -43 51 -18 91 -35 89 -37 -4 -3 -24 -6 -147 -18 -57 -5 -150
-14 -210 -20 -19 -2 -71 -6 -115 -10 -44 -3 -96 -8 -115 -10 -19 -3 -64 -7
-100 -10 -35 -3 -79 -8 -98 -11 -20 -3 -47 1 -65 9 -18 9 -77 33 -132 55 -55
21 -109 43 -120 47 -11 5 -22 9 -25 10 -3 1 -12 4 -20 8 -30 12 -245 89 -255
92 -5 1 -23 7 -38 13 -16 7 -34 12 -41 12 -7 0 -16 3 -20 8 -4 4 -11 7 -14 7
-17 1 -128 39 -139 48 -7 5 -13 7 -13 3 0 -3 -12 -1 -27 5 -16 6 -35 12 -43
14 -14 4 -323 95 -385 115 -16 5 -42 11 -57 14 -14 2 -36 10 -48 16 -12 6 -24
9 -27 6 -4 -3 -12 -1 -20 5 -7 6 -13 9 -13 6 0 -4 -19 0 -42 9 -22 8 -43 12
-46 9 -2 -2 -14 1 -26 7 -11 6 -30 13 -41 14 -11 1 -49 10 -85 19 -36 9 -73
18 -83 20 -10 2 -26 6 -35 9 -9 3 -28 7 -42 10 -14 2 -43 9 -65 15 -36 9 -284
63 -345 74 -14 3 -63 12 -110 21 -47 8 -98 18 -115 21 -16 3 -43 8 -60 11 -16
2 -41 7 -55 11 -14 3 -28 6 -32 5 -4 -1 -31 3 -60 8 -29 5 -63 11 -75 13 -47
7 -31 14 33 16 37 1 69 3 71 4 4 5 270 0 418 -8z m-995 -110 c52 -4 106 -8
120 -10 14 -2 54 -6 90 -9 91 -9 116 -12 190 -25 36 -6 81 -13 100 -15 47 -7
387 -68 450 -81 14 -3 39 -8 55 -11 35 -6 55 -10 110 -23 56 -13 145 -32 175
-37 14 -3 147 -36 295 -75 149 -38 279 -72 290 -74 11 -2 40 -10 65 -18 39
-13 94 -29 110 -31 8 -2 90 -27 188 -58 51 -16 98 -31 105 -32 7 -1 50 -15 97
-31 47 -16 87 -30 90 -30 12 -2 57 -17 75 -25 11 -5 34 -13 50 -18 76 -25 257
-92 268 -99 7 -4 15 -8 20 -9 4 -1 9 -3 12 -4 3 -1 8 -3 13 -4 4 -1 23 -9 42
-18 19 -8 52 -21 73 -27 39 -13 39 -13 33 -57 -3 -24 -8 -50 -13 -57 -4 -6 -8
-16 -10 -22 -40 -179 -73 -338 -77 -367 -2 -21 -6 -41 -9 -45 -3 -4 -7 -30
-11 -58 -3 -27 -8 -62 -11 -77 -13 -72 -22 -131 -30 -193 -2 -16 -4 -30 -5
-30 -1 0 -3 -11 -4 -25 -5 -42 -16 -133 -21 -165 -3 -16 -7 -50 -10 -75 -2
-25 -7 -56 -9 -70 -5 -30 -16 -127 -22 -190 -3 -42 -9 -91 -19 -165 -2 -16 -7
-61 -10 -100 -3 -38 -8 -89 -10 -112 -10 -89 -14 -130 -20 -198 -3 -38 -8 -83
-10 -100 -7 -61 -19 -212 -19 -262 -1 -29 -3 -53 -6 -53 -3 0 -6 -26 -7 -58
-1 -31 -4 -86 -7 -122 -3 -36 -8 -103 -11 -150 -7 -102 -13 -191 -19 -285 -5
-78 -16 -254 -22 -360 -2 -38 -5 -118 -6 -177 -2 -60 -5 -108 -8 -108 -3 0 -6
-39 -6 -88 -1 -48 -4 -154 -8 -237 -7 -154 -12 -288 -22 -595 -10 -279 -10
-1832 -1 -2095 12 -343 14 -395 22 -535 4 -69 9 -161 10 -205 2 -44 4 -80 5
-80 1 0 3 -15 4 -32 4 -49 -7 -40 -33 25 -13 31 -30 73 -38 92 -48 109 -66
157 -63 166 1 4 -3 10 -10 14 -6 4 -13 13 -14 21 -3 16 -13 44 -27 74 -4 11
-47 115 -95 230 -47 116 -93 226 -101 245 -8 19 -19 44 -23 55 -4 11 -15 36
-23 55 -31 70 -150 356 -168 403 -11 26 -23 55 -28 65 -14 25 -51 111 -51 117
0 2 -11 29 -25 59 -28 61 -47 106 -51 121 -1 6 -32 78 -69 160 -74 167 -83
188 -82 195 0 3 -6 16 -13 30 -8 14 -15 27 -16 30 -1 6 -15 37 -84 192 -26 59
-45 109 -42 112 3 3 0 6 -6 6 -7 0 -12 4 -12 10 0 8 -133 313 -223 510 -11 25
-21 47 -22 50 -1 3 -11 25 -22 50 -76 162 -136 297 -136 308 0 6 -4 12 -8 12
-6 0 -21 32 -34 70 -1 3 -18 39 -39 80 -20 41 -37 76 -37 77 0 2 -16 38 -36
80 -20 43 -37 81 -37 84 -1 3 -11 25 -23 50 -74 148 -183 384 -183 395 0 8 -3
14 -8 14 -4 0 -13 15 -21 33 -12 27 -102 212 -337 692 -21 44 -43 83 -47 86
-5 3 -9 10 -9 15 0 9 -59 135 -68 144 -10 10 -90 177 -90 187 0 6 -3 13 -7 15
-7 3 -54 92 -180 338 -21 41 -40 77 -43 80 -3 3 -20 34 -37 70 -18 36 -51 99
-74 140 -22 41 -61 113 -86 160 -25 47 -49 90 -53 95 -18 23 -85 162 -87 180
-2 11 -6 36 -9 55 -4 19 -8 55 -10 80 -2 25 -6 72 -9 105 -3 33 -7 130 -10
215 -2 85 -5 156 -6 158 -5 8 -4 30 3 44 5 9 4 19 -2 23 -5 3 -6 15 0 29 4 12
4 29 0 36 -5 8 -6 18 -3 22 2 5 7 82 9 171 3 89 7 182 9 207 3 25 6 77 9 115
4 68 11 138 22 220 3 22 7 56 9 75 2 19 6 51 10 70 3 19 8 49 9 65 7 67 18
114 30 124 10 9 113 19 141 14 6 -1 53 -4 105 -8z m-486 -1928 c47 -3 51 -6
83 -52 18 -27 33 -55 33 -62 0 -7 5 -13 12 -13 6 0 8 -3 5 -6 -4 -4 2 -19 12
-33 10 -14 40 -69 68 -121 28 -52 70 -131 93 -175 194 -365 305 -581 534
-1040 184 -369 262 -529 388 -795 22 -47 51 -106 64 -131 13 -26 24 -54 24
-63 0 -9 5 -16 10 -16 6 0 10 -5 10 -10 0 -6 29 -72 65 -146 36 -74 65 -141
65 -148 0 -8 7 -19 15 -26 8 -7 15 -17 15 -23 0 -5 18 -48 40 -94 22 -47 40
-86 40 -88 0 -2 21 -47 46 -102 25 -54 52 -111 59 -128 8 -16 35 -75 60 -130
26 -55 48 -104 49 -110 2 -5 19 -45 39 -89 21 -43 37 -80 37 -82 0 -2 14 -34
31 -71 17 -38 46 -102 64 -143 18 -41 43 -97 56 -125 13 -27 22 -53 21 -57 -1
-5 2 -8 6 -8 5 0 9 -6 9 -12 1 -11 22 -60 98 -233 10 -22 19 -42 19 -45 2 -5
12 -29 67 -148 16 -35 29 -67 29 -71 0 -4 6 -21 14 -37 25 -51 56 -123 56
-128 0 -3 14 -36 31 -73 33 -72 46 -103 48 -116 0 -4 12 -29 25 -56 14 -27 22
-51 19 -55 -4 -3 -1 -6 5 -6 7 0 11 -3 10 -7 -1 -5 3 -19 9 -33 29 -70 177
-419 188 -445 7 -16 29 -68 48 -115 19 -47 50 -121 68 -165 19 -44 34 -82 34
-85 0 -3 8 -21 17 -40 9 -19 35 -82 58 -140 23 -58 53 -129 66 -158 13 -29 24
-55 24 -58 0 -3 6 -20 14 -37 17 -41 48 -117 76 -187 21 -52 33 -80 75 -178
10 -23 15 -45 12 -48 -3 -4 -34 -8 -69 -9 -78 -4 -242 -14 -328 -20 -120 -9
-244 -16 -335 -20 -49 -2 -124 -6 -165 -10 -41 -3 -113 -7 -160 -10 -47 -3
-130 -8 -185 -11 -55 -3 -134 -7 -175 -8 l-74 -1 -8 35 c-4 19 -9 44 -12 55
-4 19 -23 92 -33 125 -2 8 -4 16 -5 17 0 2 -9 35 -19 75 -11 40 -22 81 -24 90
-3 10 -7 26 -10 35 -4 18 -41 153 -50 183 -2 8 -11 40 -20 70 -9 30 -18 62
-20 70 -2 8 -4 17 -5 20 -1 3 -3 10 -4 15 -1 6 -5 17 -8 25 -4 8 -10 29 -14
45 -4 17 -8 32 -9 35 -1 3 -8 25 -15 50 -7 25 -14 48 -16 53 -1 4 -2 8 -4 10
-1 1 -3 9 -5 17 -2 8 -13 47 -25 85 -12 39 -22 75 -24 80 -1 6 -10 35 -20 65
-19 60 -22 70 -26 85 -1 6 -7 21 -12 35 -5 14 -11 32 -13 40 -5 20 -173 531
-182 550 -3 8 -7 20 -8 25 0 6 -7 24 -14 40 -7 17 -14 37 -16 45 -4 18 -123
357 -135 385 -5 11 -16 40 -24 65 -8 25 -35 101 -61 170 -26 69 -48 130 -49
135 -1 6 -7 19 -13 30 -6 11 -12 23 -12 27 -2 11 -10 35 -18 56 -4 9 -8 22 -8
27 -1 6 -9 27 -19 47 -9 21 -16 39 -16 42 0 3 -5 17 -12 33 -6 15 -12 30 -13
33 -5 15 -127 334 -140 365 -6 17 -27 68 -45 115 -18 47 -38 99 -46 115 -7 17
-24 59 -38 95 -14 36 -30 79 -37 95 -7 17 -13 32 -14 35 0 3 -7 16 -15 30 -7
14 -13 27 -13 30 1 9 -211 525 -256 625 -11 22 -30 68 -45 102 -14 35 -37 87
-51 117 -14 30 -25 57 -25 60 0 3 -13 34 -29 68 -16 35 -46 101 -66 148 -20
47 -55 123 -77 170 -22 47 -41 90 -43 95 -13 43 -18 55 -26 55 -5 0 -8 3 -7 8
2 9 -8 30 -67 157 -26 55 -60 129 -77 165 -69 147 -150 316 -161 335 -17 30
-51 99 -52 105 -3 18 -283 553 -312 595 -7 11 -13 22 -13 25 0 7 -2 7 210 15
85 3 155 7 156 8 3 3 561 -2 618 -6z"/>
</g>
</svg>
